<?xml version="1.0" encoding="utf-8"?>
<!-- Generator: Adobe Illustrator 27.7.0, SVG Export Plug-In . SVG Version: 6.00 Build 0)  -->
<svg version="1.1" id="图层_1" xmlns="http://www.w3.org/2000/svg" xmlns:xlink="http://www.w3.org/1999/xlink" x="0px" y="0px"
	 viewBox="0 0 578.54 254.92" style="enable-background:new 0 0 578.54 254.92;" xml:space="preserve">
<style type="text/css">
	.st0{fill:none;stroke:#040000;stroke-width:0.3655;stroke-miterlimit:10;stroke-dasharray:4.1768,4.1768;}
	.st1{fill:#3AAEE1;}
	.st2{fill:#FFFFFF;}
	.st3{fill:#A7DBF5;}
	.st4{font-family:'ArialMT';}
	.st5{font-size:9.6302px;}
	.st6{font-size:8px;}
	.st7{fill:none;stroke:#231815;stroke-width:1.016;stroke-miterlimit:10;}
	.st8{fill:#231815;}
	.st9{font-size:15.4102px;}
	.st10{font-family:'Arial-BoldMT';}
	.st11{font-size:10.2735px;}
	.st12{fill:none;stroke:#3D7DDA;stroke-miterlimit:8;}
	.st13{font-size:9.2615px;}
	.st14{font-size:11.2461px;}
	.st15{font-size:11.84px;}
	.st16{fill:#E0E9D2;}
	.st17{fill:none;stroke:#231815;stroke-width:0.6;stroke-miterlimit:10;}
	.st18{fill:#D3E7EE;}
	.st19{fill:none;stroke:#0A9141;stroke-width:0.5;stroke-miterlimit:10;}
	.st20{fill:none;stroke:#D44B91;stroke-width:0.5;stroke-miterlimit:10;}
	.st21{fill:none;stroke:#8A07A5;stroke-width:0.5;stroke-miterlimit:10;}
	.st22{font-size:7.9384px;}
	.st23{font-size:6.6153px;}
	.st24{fill:none;stroke:#000000;stroke-width:0.5;}
	.st25{fill:#B28247;}
	.st26{fill:#D6C9AE;}
	.st27{font-size:6.3507px;}
	.st28{fill-rule:evenodd;clip-rule:evenodd;}
	.st29{font-family:'Helvetica';}
	.st30{font-size:5.3287px;}
	.st31{fill:none;stroke:#040000;stroke-width:0.4005;stroke-miterlimit:10;stroke-dasharray:4.5775,4.5775;}
	.st32{fill:none;stroke:#040000;stroke-width:0.4004;stroke-miterlimit:10;stroke-dasharray:4.5765,4.5765;}
	.st33{fill:none;stroke:#040000;stroke-width:0.4786;stroke-miterlimit:10;stroke-dasharray:5.47,5.47;}
	.st34{fill:none;stroke:#56BCDB;stroke-width:1.0519;stroke-miterlimit:10;}
	.st35{fill:none;stroke:#0A9141;stroke-width:0.6;stroke-miterlimit:10;}
	.st36{opacity:0.78;fill:#FFFFFF;stroke:#FF9B54;stroke-width:0.3629;}
	.st37{opacity:0.78;fill:#FFFFFF;stroke:#FF7F51;stroke-width:0.3629;}
	.st38{opacity:0.78;fill:#FFFFFF;stroke:#CE4257;stroke-width:0.3629;}
	.st39{opacity:0.78;fill:#FFFFFF;stroke:#720026;stroke-width:0.3629;}
	.st40{fill:#3A414A;}
	.st41{fill:none;stroke:#898989;stroke-width:0.363;stroke-dasharray:1,1;}
	.st42{fill:#898989;}
</style>
<g>
	<path class="st0" d="M144.82,158.65H13.92c-3.64,0-6.62-3.25-6.62-7.21V31.47c0-3.97,2.98-7.21,6.62-7.21h130.9
		c3.64,0,6.62,3.25,6.62,7.21v119.97C151.43,155.41,148.45,158.65,144.82,158.65z"/>
	<path class="st0" d="M563.97,158.65H164.61c-3.64,0-6.62-3.25-6.62-7.21V31.47c0-3.97,2.98-7.21,6.62-7.21h399.37
		c3.64,0,6.62,3.25,6.62,7.21v119.97C570.59,155.41,567.61,158.65,563.97,158.65z"/>
</g>
<g>
	<path class="st1" d="M75.42,60.29H37.44v8.99h0.06c0,0.01,0,0.01,0,0.02c0,2.62,8.47,4.74,18.93,4.74
		c10.45,0,18.93-2.12,18.93-4.74c0-0.01,0-0.01,0-0.02h0.06V60.29z"/>
	<path class="st2" d="M56.43,65.04c-10.46,0-18.93-2.12-18.93-4.74c0-2.62,8.47-4.75,18.93-4.75c10.45,0,18.93,2.12,18.93,4.75
		C75.36,62.92,66.88,65.04,56.43,65.04"/>
	<path class="st2" d="M56.43,62.17c-6.71,0-12.16-0.94-12.16-2.1c0-1.16,5.45-2.1,12.16-2.1c6.71,0,12.16,0.94,12.16,2.1
		C68.59,61.23,63.14,62.17,56.43,62.17"/>
	<path class="st1" d="M75.42,49.01H37.44v8.99h0.06c0,0.01,0,0.01,0,0.02c0,2.62,8.47,4.74,18.93,4.74
		c10.45,0,18.93-2.12,18.93-4.74c0-0.01,0-0.01,0-0.02h0.06V49.01z"/>
	<path class="st2" d="M56.43,53.76c-10.46,0-18.93-2.12-18.93-4.74c0-2.62,8.47-4.75,18.93-4.75c10.45,0,18.93,2.12,18.93,4.75
		C75.36,51.63,66.88,53.76,56.43,53.76"/>
	<path class="st2" d="M56.43,50.88c-6.71,0-12.16-0.94-12.16-2.1c0-1.16,5.45-2.1,12.16-2.1c6.71,0,12.16,0.94,12.16,2.1
		C68.59,49.95,63.14,50.88,56.43,50.88"/>
	<path class="st1" d="M75.42,37.72H37.44v8.99h0.06c0,0.01,0,0.01,0,0.02c0,2.62,8.47,4.74,18.93,4.74
		c10.45,0,18.93-2.12,18.93-4.74c0-0.01,0-0.01,0-0.02h0.06V37.72z"/>
	<path class="st3" d="M56.43,42.47c-10.46,0-18.93-2.12-18.93-4.74c0-2.62,8.47-4.75,18.93-4.75c10.45,0,18.93,2.12,18.93,4.75
		C75.36,40.35,66.88,42.47,56.43,42.47"/>
	<path class="st2" d="M56.43,39.6c-6.71,0-12.16-0.94-12.16-2.1c0-1.16,5.45-2.1,12.16-2.1c6.71,0,12.16,0.94,12.16,2.1
		C68.59,38.66,63.14,39.6,56.43,39.6"/>
</g>
<g>
	<text transform="matrix(1 0 0 1 12.5481 83.5902)" class="st4 st5">Benchmark datasets</text>
</g>
<g>
	<text transform="matrix(1 0 0 1 15.9265 93.5654)" class="st4 st6">(90 x peptide profiles)</text>
</g>
<g>
	<text transform="matrix(1 0 0 1 14.2514 243.0728)" class="st4 st6">(N x peptide profiles)</text>
</g>
<g>
	<g>
		<path class="st1" d="M539.29,59.65h-37.97v8.99h0.06c0,0.01,0,0.01,0,0.02c0,2.62,8.47,4.74,18.93,4.74
			c10.45,0,18.93-2.12,18.93-4.74c0-0.01,0-0.01,0-0.02h0.06V59.65z"/>
		<path class="st2" d="M520.31,64.4c-10.46,0-18.93-2.12-18.93-4.74c0-2.62,8.47-4.75,18.93-4.75c10.45,0,18.93,2.12,18.93,4.75
			C539.24,62.28,530.76,64.4,520.31,64.4"/>
		<path class="st2" d="M520.31,61.53c-6.71,0-12.16-0.94-12.16-2.1c0-1.16,5.45-2.1,12.16-2.1c6.71,0,12.16,0.94,12.16,2.1
			C532.46,60.59,527.02,61.53,520.31,61.53"/>
		<path class="st1" d="M539.29,48.36h-37.97v8.99h0.06c0,0.01,0,0.01,0,0.02c0,2.62,8.47,4.74,18.93,4.74
			c10.45,0,18.93-2.12,18.93-4.74c0-0.01,0-0.01,0-0.02h0.06V48.36z"/>
		<path class="st2" d="M520.31,53.11c-10.46,0-18.93-2.12-18.93-4.74c0-2.62,8.47-4.75,18.93-4.75c10.45,0,18.93,2.12,18.93,4.75
			C539.24,50.99,530.76,53.11,520.31,53.11"/>
		<path class="st2" d="M520.31,50.24c-6.71,0-12.16-0.94-12.16-2.1c0-1.16,5.45-2.1,12.16-2.1c6.71,0,12.16,0.94,12.16,2.1
			C532.46,49.3,527.02,50.24,520.31,50.24"/>
		<path class="st1" d="M539.29,37.07h-37.97v8.99h0.06c0,0.01,0,0.01,0,0.02c0,2.62,8.47,4.74,18.93,4.74
			c10.45,0,18.93-2.12,18.93-4.74c0-0.01,0-0.01,0-0.02h0.06V37.07z"/>
		<path class="st3" d="M520.31,41.82c-10.46,0-18.93-2.12-18.93-4.74c0-2.62,8.47-4.75,18.93-4.75c10.45,0,18.93,2.12,18.93,4.75
			C539.24,39.7,530.76,41.82,520.31,41.82"/>
		<path class="st2" d="M520.31,38.95c-6.71,0-12.16-0.94-12.16-2.1c0-1.16,5.45-2.1,12.16-2.1c6.71,0,12.16,0.94,12.16,2.1
			C532.46,38.02,527.02,38.95,520.31,38.95"/>
	</g>
	<g>
		<text transform="matrix(1 0 0 1 483.3745 83.5904)" class="st4 st5">High-CI Peptides</text>
	</g>
</g>
<g>
	<g>
		<line class="st7" x1="105.86" y1="86.92" x2="140.68" y2="86.92"/>
		<g>
			<polygon class="st8" points="146.42,86.92 138.34,90.23 140.26,86.92 138.34,83.62 			"/>
		</g>
	</g>
</g>
<g>
	<g>
		<line class="st7" x1="150.91" y1="208.5" x2="185.73" y2="208.5"/>
		<g>
			<polygon class="st8" points="191.47,208.5 183.39,211.8 185.3,208.5 183.39,205.19 			"/>
		</g>
	</g>
</g>
<g>
	<g>
		<line class="st7" x1="280.59" y1="207.82" x2="315.41" y2="207.82"/>
		<g>
			<polygon class="st8" points="321.15,207.82 313.07,211.13 314.98,207.82 313.07,204.52 			"/>
		</g>
	</g>
</g>
<g>
	<g>
		<line class="st7" x1="276.6" y1="86.92" x2="311.42" y2="86.92"/>
		<g>
			<polygon class="st8" points="317.16,86.92 309.07,90.23 310.99,86.92 309.07,83.62 			"/>
		</g>
	</g>
</g>
<g>
	<g>
		<line class="st7" x1="431.6" y1="85.32" x2="466.42" y2="85.32"/>
		<g>
			<polygon class="st8" points="472.16,85.32 464.08,88.62 465.99,85.32 464.08,82.01 			"/>
		</g>
	</g>
</g>
<text transform="matrix(1 0 0 1 165.2402 16.8798)" class="st8 st4 st9">STAVER Algorithm Framework</text>
<text transform="matrix(1 0 0 1 100.2969 78.8638)" class="st10 st11">Preprocess</text>
<text transform="matrix(1 0 0 1 145.5186 201.3135)" class="st10 st11">Preprocess</text>
<path class="st12" d="M171.19,122.49c-2.76,0-4.99-0.6-4.99-1.33V91.03c0-0.73-2.24-1.33-5-1.33c2.76,0,5-0.59,5-1.33V58.24
	c0-0.74,2.24-1.33,4.99-1.33"/>
<path class="st12" d="M264.47,56.79c2.74,0,4.96,0.59,4.96,1.32v29.92c0,0.73,2.22,1.32,4.96,1.32c-2.74,0-4.96,0.59-4.96,1.32
	v29.92c0,0.73-2.22,1.32-4.96,1.32"/>
<text transform="matrix(1 0 0 1 256.7212 79.4317)" class="st4 st13">MaxSubsetMinCV</text>
<text transform="matrix(1 0 0 1 10.0464 38.4871)" class="st10 st14">Input 1</text>
<text transform="matrix(1 0 0 1 424.7358 176.8511)" class="st10 st15">Output</text>
<g>
	<text transform="matrix(1 0 0 1 271.519 38.6302)" class="st10 st15">High-CI peptides module</text>
</g>
<text transform="matrix(1 0 0 1 207.1763 179.9542)" class="st10 st14">Peptide-to-Protein Inference</text>
<g>
	<text transform="matrix(1 0 0 1 426.1587 99.9288)"><tspan x="0" y="0" class="st4 st13"> Select Top </tspan><tspan x="0" y="11.11" class="st4 st13">N Precursors   </tspan></text>
</g>
<path class="st16" d="M257.74,73.64h-78.46c-2.18,0-3.97-1.79-3.97-3.97V53.06c0-2.18,1.79-3.97,3.97-3.97h78.46
	c2.18,0,3.97,1.79,3.97,3.97v16.61C261.71,71.85,259.93,73.64,257.74,73.64"/>
<path class="st17" d="M257.74,73.64h-78.46c-2.18,0-3.97-1.79-3.97-3.97V53.06c0-2.18,1.79-3.97,3.97-3.97h78.46
	c2.18,0,3.97,1.79,3.97,3.97v16.61C261.71,71.85,259.93,73.64,257.74,73.64z"/>
<path class="st18" d="M257.74,132.75h-78.46c-2.18,0-3.97-1.79-3.97-3.97v-16.61c0-2.18,1.79-3.97,3.97-3.97h78.46
	c2.18,0,3.97,1.79,3.97,3.97v16.61C261.71,130.96,259.93,132.75,257.74,132.75"/>
<path class="st17" d="M257.74,132.75h-78.46c-2.18,0-3.97-1.79-3.97-3.97v-16.61c0-2.18,1.79-3.97,3.97-3.97h78.46
	c2.18,0,3.97,1.79,3.97,3.97v16.61C261.71,130.96,259.93,132.75,257.74,132.75z"/>
<path class="st16" d="M416.42,88.39h-78.46c-2.18,0-3.97-1.79-3.97-3.97V67.82c0-2.18,1.79-3.97,3.97-3.97h78.46
	c2.18,0,3.97,1.79,3.97,3.97v16.61C420.39,86.61,418.61,88.39,416.42,88.39"/>
<path class="st17" d="M416.42,88.39h-78.46c-2.18,0-3.97-1.79-3.97-3.97V67.82c0-2.18,1.79-3.97,3.97-3.97h78.46
	c2.18,0,3.97,1.79,3.97,3.97v16.61C420.39,86.61,418.61,88.39,416.42,88.39z"/>
<text transform="matrix(1 0 0 1 184.7017 64.7344)" class="st4 st5">Peptide of onfile</text>
<text transform="matrix(1 0 0 1 340.2046 79.4317)" class="st4 st5">Filtered-Peptides</text>
<text transform="matrix(1 0 0 1 177.4985 122.9591)" class="st4 st5">Peptide of multifiles</text>
<text transform="matrix(1 0 0 1 425.6567 63.502)"><tspan x="0" y="0" class="st4 st13">Scoring and </tspan><tspan x="0" y="11.11" class="st4 st13">   Ranking</tspan></text>
<g>
	<g>
		<path class="st19" d="M48.66,139.29c-0.31-0.21-0.69-0.58-0.99-1.04c-0.49-0.75-0.84-1.98-1.32-3.63
			c-1.45-5.04-2.12-10.8-4.28-10.9 M35.48,139.29c0.31-0.21,0.69-0.58,0.99-1.04c0.49-0.75,0.84-1.98,1.32-3.63
			c1.45-5.04,2.11-10.8,4.28-10.9"/>
		<path class="st20" d="M64.48,139.29c-0.13-0.15-0.84-3.09-1.05-5.84c-0.12-1.6-0.32-3.6-0.57-4.71c-0.18-0.82-0.44-0.95-0.48-1.13
			c-0.18-0.72-0.97,2.2-1.54,3.89c-0.5,1.47-0.83,1.93-1.02,0.78c-1.28-7.57-1.86-16.21-3.77-16.34 M50.24,139.29
			c0.27-0.31,0.6-0.87,0.87-1.56c0.43-1.12,0.74-2.98,1.16-5.45c1.28-7.57,1.86-16.21,3.77-16.34"/>
		<path class="st21" d="M80.82,139.29c-0.27-0.23-0.61-0.65-0.87-1.17c-0.43-0.84-0.74-2.23-1.16-4.09
			c-1.28-5.67-1.86-12.15-3.77-12.26 M69.22,139.29c0.27-0.23,0.6-0.65,0.87-1.17c0.43-0.84,0.74-2.23,1.16-4.09
			c1.28-5.67,1.86-12.15,3.77-12.26"/>
		<path class="st19" d="M45.49,138.93c-0.24-0.05-0.55-0.13-0.79-0.24c-0.39-0.17-0.67-0.45-1.05-0.83
			c-1.16-1.15-1.69-2.46-3.43-2.48 M34.95,138.93c0.25-0.05,0.55-0.13,0.79-0.24c0.39-0.17,0.68-0.45,1.05-0.83
			c1.16-1.15,1.69-2.46,3.43-2.48"/>
		<path class="st21" d="M80.82,139.29c-0.21-0.09-0.47-0.25-0.67-0.45c-0.33-0.33-0.57-0.87-0.9-1.59
			c-0.99-2.21-1.44-4.73-2.91-4.77"/>
		<path class="st21" d="M71.86,139.29c0.21-0.09,0.47-0.25,0.67-0.45c0.33-0.33,0.57-0.87,0.9-1.59c0.99-2.21,1.44-4.73,2.91-4.77"
			/>
		<path class="st20" d="M61.84,139.29c-0.27-0.18-0.6-0.51-0.87-0.91c-0.43-0.65-0.74-1.74-1.16-3.18
			c-1.28-4.41-1.86-9.45-3.77-9.53"/>
		<path class="st20" d="M50.24,139.29c0.27-0.18,0.6-0.51,0.87-0.91c0.43-0.65,0.74-1.74,1.16-3.18c1.28-4.41,1.86-9.45,3.77-9.53"
			/>
		<path class="st20" d="M61.84,139.25c-0.27-0.59-0.6-1.66-0.87-2.98c-0.43-2.15-0.74-5.7-1.16-10.43
			c-1.28-14.49-1.86-31.03-3.77-31.3"/>
		<path class="st20" d="M50.24,139.25c0.27-0.59,0.6-1.66,0.87-2.98c0.43-2.15,0.74-5.7,1.16-10.43c1.28-14.49,1.86-31.03,3.77-31.3
			"/>
		<path class="st19" d="M47.08,139.25c-0.27-0.46-0.6-1.3-0.87-2.33c-0.43-1.68-0.74-4.45-1.16-8.15
			c-1.28-11.32-1.86-24.25-3.77-24.46"/>
		<path class="st19" d="M35.48,139.25c0.27-0.46,0.6-1.3,0.87-2.33c0.43-1.68,0.74-4.45,1.16-8.15c1.28-11.32,1.86-24.25,3.77-24.46
			"/>
		<path class="st21" d="M80.82,139.25c-0.31-0.13-0.69-0.36-0.99-0.65c-0.49-0.47-0.85-1.23-1.32-2.26
			c-1.45-3.14-2.11-6.73-4.28-6.78 M67.64,139.25c0.31-0.13,0.69-0.36,0.99-0.65c0.49-0.47,0.84-1.23,1.32-2.26
			c1.45-3.14,2.12-6.73,4.28-6.78"/>
	</g>
	<text transform="matrix(1.0004 0 0 1 14.8384 155.1847)" class="st4 st22">Chromatogram extraction</text>
	<text transform="matrix(1.0004 0 0 1 30.5346 147.2616)" class="st4 st23">Retention time (min)</text>
	<text transform="matrix(0 -1.0004 1 0 28.0009 141.0907)" class="st4 st23">MS2 intensity</text>
	<line class="st24" x1="31.78" y1="139.55" x2="86.93" y2="139.55"/>
	<polygon points="83.02,141.65 82.79,141.03 86.87,139.55 82.79,138.07 83.02,137.45 88.8,139.55 	"/>
	<line class="st24" x1="33.34" y1="99.5" x2="33.34" y2="141.09"/>
	<polygon points="31.23,103.41 31.85,103.64 33.34,99.57 34.82,103.64 35.44,103.41 33.34,97.64 	"/>
</g>
<g>
	<path class="st25" d="M70.13,211.14H32.15v8.99h0.06c0,0.01,0,0.01,0,0.02c0,2.62,8.47,4.74,18.93,4.74
		c10.45,0,18.93-2.12,18.93-4.74c0-0.01,0-0.01,0-0.02h0.06V211.14z"/>
	<path class="st2" d="M51.14,215.89c-10.46,0-18.93-2.12-18.93-4.74c0-2.62,8.47-4.75,18.93-4.75c10.45,0,18.93,2.12,18.93,4.75
		C70.07,213.76,61.59,215.89,51.14,215.89"/>
	<path class="st2" d="M51.14,213.01c-6.71,0-12.16-0.94-12.16-2.1c0-1.16,5.45-2.1,12.16-2.1c6.71,0,12.16,0.94,12.16,2.1
		C63.3,212.08,57.85,213.01,51.14,213.01"/>
	<path class="st25" d="M70.13,199.85H32.15v8.99h0.06c0,0.01,0,0.01,0,0.02c0,2.62,8.47,4.74,18.93,4.74
		c10.45,0,18.93-2.12,18.93-4.74c0-0.01,0-0.01,0-0.02h0.06V199.85z"/>
	<path class="st2" d="M51.14,204.6c-10.46,0-18.93-2.12-18.93-4.74c0-2.62,8.47-4.75,18.93-4.75c10.45,0,18.93,2.12,18.93,4.75
		C70.07,202.48,61.59,204.6,51.14,204.6"/>
	<path class="st2" d="M51.14,201.73c-6.71,0-12.16-0.94-12.16-2.1c0-1.16,5.45-2.1,12.16-2.1c6.71,0,12.16,0.94,12.16,2.1
		C63.3,200.79,57.85,201.73,51.14,201.73"/>
	<path class="st25" d="M70.13,188.56H32.15v8.99h0.06c0,0.01,0,0.01,0,0.02c0,2.62,8.47,4.74,18.93,4.74
		c10.45,0,18.93-2.12,18.93-4.74c0-0.01,0-0.01,0-0.02h0.06V188.56z"/>
	<path class="st26" d="M51.14,193.31c-10.46,0-18.93-2.12-18.93-4.74c0-2.62,8.47-4.75,18.93-4.75c10.45,0,18.93,2.12,18.93,4.75
		C70.07,191.19,61.59,193.31,51.14,193.31"/>
	<path class="st2" d="M51.14,190.44c-6.71,0-12.16-0.94-12.16-2.1c0-1.16,5.45-2.1,12.16-2.1c6.71,0,12.16,0.94,12.16,2.1
		C63.3,189.5,57.85,190.44,51.14,190.44"/>
</g>
<g>
	<text transform="matrix(1 0 0 1 15.4834 234.5176)" class="st4 st5">Sample datasets</text>
</g>
<text transform="matrix(1 0 0 1 13.0737 176.7081)" class="st10 st14">Input 2</text>
<g>
	<g>
		<path class="st19" d="M116.37,229.05c-0.31-0.21-0.69-0.58-0.99-1.04c-0.49-0.75-0.84-1.98-1.32-3.63
			c-1.45-5.04-2.12-10.8-4.28-10.9 M103.18,229.05c0.31-0.21,0.69-0.58,0.99-1.04c0.49-0.75,0.84-1.98,1.32-3.63
			c1.45-5.04,2.11-10.8,4.28-10.9"/>
		<path class="st20" d="M132.18,229.05c-0.13-0.15-0.84-3.09-1.05-5.84c-0.12-1.6-0.32-3.6-0.57-4.71
			c-0.18-0.82-0.44-0.95-0.48-1.13c-0.18-0.72-0.97,2.2-1.54,3.89c-0.5,1.47-0.83,1.93-1.02,0.78c-1.28-7.57-1.86-16.21-3.77-16.34
			 M117.95,229.05c0.27-0.31,0.6-0.87,0.87-1.56c0.43-1.12,0.74-2.98,1.16-5.45c1.28-7.57,1.86-16.21,3.77-16.34"/>
		<path class="st21" d="M148.53,229.05c-0.27-0.23-0.61-0.65-0.87-1.17c-0.43-0.84-0.74-2.23-1.16-4.09
			c-1.28-5.67-1.86-12.15-3.77-12.26 M136.93,229.05c0.27-0.23,0.6-0.65,0.87-1.17c0.43-0.84,0.74-2.23,1.16-4.09
			c1.28-5.67,1.86-12.15,3.77-12.26"/>
		<path class="st19" d="M113.2,228.7c-0.24-0.05-0.55-0.13-0.79-0.24c-0.39-0.17-0.67-0.45-1.05-0.83
			c-1.16-1.15-1.69-2.46-3.43-2.48 M102.66,228.7c0.25-0.05,0.55-0.13,0.79-0.24c0.39-0.17,0.68-0.45,1.05-0.83
			c1.16-1.15,1.69-2.46,3.43-2.48"/>
		<path class="st21" d="M148.53,229.05c-0.21-0.09-0.47-0.25-0.67-0.45c-0.33-0.33-0.57-0.87-0.9-1.59
			c-0.99-2.21-1.44-4.73-2.91-4.77"/>
		<path class="st21" d="M139.57,229.05c0.21-0.09,0.47-0.25,0.67-0.45c0.33-0.33,0.57-0.87,0.9-1.59c0.99-2.21,1.44-4.73,2.91-4.77"
			/>
		<path class="st20" d="M129.55,229.05c-0.27-0.18-0.6-0.51-0.87-0.91c-0.43-0.65-0.74-1.74-1.16-3.18
			c-1.28-4.41-1.86-9.45-3.77-9.53"/>
		<path class="st20" d="M117.95,229.05c0.27-0.18,0.6-0.51,0.87-0.91c0.43-0.65,0.74-1.74,1.16-3.18c1.28-4.41,1.86-9.45,3.77-9.53"
			/>
		<path class="st20" d="M129.55,229.01c-0.27-0.59-0.6-1.66-0.87-2.98c-0.43-2.15-0.74-5.7-1.16-10.43
			c-1.28-14.49-1.86-31.03-3.77-31.3"/>
		<path class="st20" d="M117.95,229.01c0.27-0.59,0.6-1.66,0.87-2.98c0.43-2.15,0.74-5.7,1.16-10.43
			c1.28-14.49,1.86-31.03,3.77-31.3"/>
		<path class="st19" d="M114.78,229.01c-0.27-0.46-0.6-1.3-0.87-2.33c-0.43-1.68-0.74-4.45-1.16-8.15
			c-1.28-11.32-1.86-24.25-3.77-24.46"/>
		<path class="st19" d="M103.18,229.01c0.27-0.46,0.6-1.3,0.87-2.33c0.43-1.68,0.74-4.45,1.16-8.15
			c1.28-11.32,1.86-24.25,3.77-24.46"/>
		<path class="st21" d="M148.53,229.01c-0.31-0.13-0.69-0.36-0.99-0.65c-0.49-0.47-0.85-1.23-1.32-2.26
			c-1.45-3.14-2.11-6.73-4.28-6.78 M135.35,229.01c0.31-0.13,0.69-0.36,0.99-0.65c0.49-0.47,0.84-1.23,1.32-2.26
			c1.45-3.14,2.12-6.73,4.28-6.78"/>
	</g>
	<text transform="matrix(1.0004 0 0 1 81.6436 181.0679)" class="st4 st22">Chromatogram extraction</text>
	<text transform="matrix(1.0004 0 0 1 98.2427 237.0235)" class="st4 st23">Retention time (min)</text>
	<text transform="matrix(0 -1.0004 1 0 95.7085 230.8536)" class="st4 st23">MS2 intensity</text>
	<line class="st24" x1="99.49" y1="229.31" x2="154.64" y2="229.31"/>
	<polygon points="150.73,231.42 150.5,230.8 154.57,229.31 150.5,227.83 150.73,227.21 156.51,229.31 	"/>
	<line class="st24" x1="101.04" y1="189.27" x2="101.04" y2="230.85"/>
	<polygon points="98.94,193.18 99.56,193.4 101.04,189.33 102.53,193.4 103.15,193.18 101.04,187.4 	"/>
</g>
<g>
	<g>
		<path class="st19" d="M369.38,146.91c-0.31-0.21-0.69-0.58-0.99-1.04c-0.49-0.75-0.84-1.98-1.32-3.63
			c-1.45-5.04-2.12-10.8-4.28-10.9 M356.19,146.91c0.31-0.21,0.69-0.58,0.99-1.04c0.49-0.75,0.84-1.98,1.32-3.63
			c1.45-5.04,2.11-10.8,4.28-10.9"/>
		<path class="st20" d="M382.14,146.55l-1.1-3.54l-0.51-3.11c-1.28-7.57-1.86-16.21-3.77-16.34 M370.96,146.91
			c0.27-0.31,0.6-0.87,0.87-1.56c0.43-1.12,0.74-2.98,1.16-5.45c1.28-7.57,1.86-16.21,3.77-16.34"/>
		<path class="st21" d="M401.54,146.91c-0.27-0.23-0.61-0.65-0.87-1.17c-0.43-0.84-0.74-2.23-1.16-4.09
			c-1.28-5.67-1.86-12.15-3.77-12.26 M389.94,146.91c0.27-0.23,0.6-0.65,0.87-1.17c0.43-0.84,0.74-2.23,1.16-4.09
			c1.28-5.67,1.86-12.15,3.77-12.26"/>
		<path class="st19" d="M367.53,146.55c-0.24-0.05-0.55-0.13-0.79-0.24c-0.39-0.17-0.67-0.45-1.05-0.83
			c-1.16-1.15-1.69-2.46-3.43-2.48 M356.99,146.55c0.25-0.05,0.55-0.13,0.79-0.24c0.39-0.17,0.68-0.45,1.05-0.83
			c1.16-1.15,1.69-2.46,3.43-2.48"/>
		<path class="st20" d="M382.56,146.91c-0.27-0.18-0.6-0.51-0.87-0.91c-0.43-0.65-0.74-1.74-1.16-3.18
			c-1.28-4.41-1.86-9.45-3.77-9.53"/>
		<path class="st20" d="M370.96,146.91c0.27-0.18,0.6-0.51,0.87-0.91c0.43-0.65,0.74-1.74,1.16-3.18c1.28-4.41,1.86-9.45,3.77-9.53"
			/>
		<path class="st20" d="M382.56,146.87c-0.27-0.59-0.6-1.66-0.87-2.98c-0.43-2.15-0.74-5.7-1.16-10.43
			c-1.28-14.49-1.86-31.03-3.77-31.3"/>
		<path class="st20" d="M370.96,146.87c0.27-0.59,0.6-1.66,0.87-2.98c0.43-2.15,0.74-5.7,1.16-10.43
			c1.28-14.49,1.86-31.03,3.77-31.3"/>
		<path class="st19" d="M367.79,146.87c-0.27-0.46-0.6-1.3-0.87-2.33c-0.43-1.68-0.74-4.45-1.16-8.15
			c-1.28-11.32-1.86-24.25-3.77-24.46"/>
		<path class="st19" d="M356.19,146.87c0.27-0.46,0.6-1.3,0.87-2.33c0.43-1.68,0.74-4.45,1.16-8.15
			c1.28-11.32,1.86-24.25,3.77-24.46"/>
		<path class="st21" d="M402.51,146.71c-0.31-0.13-0.69-0.36-0.99-0.65c-0.49-0.47-0.85-1.23-1.32-2.26
			c-1.45-3.14-2.11-6.73-4.28-6.78 M389.32,146.71c0.31-0.13,0.69-0.36,0.99-0.65c0.49-0.47,0.84-1.23,1.32-2.26
			c1.45-3.14,2.12-6.73,4.28-6.78"/>
	</g>
	<text transform="matrix(1.0004 0 0 1 335.9146 98.9229)" class="st4 st22">Candidate peak groups</text>
	<text transform="matrix(1.0004 0 0 1 351.2505 154.8785)" class="st4 st23">Retention time (min)</text>
	<text transform="matrix(0 -1.0004 1 0 348.7173 148.709)" class="st4 st23">MS2 intensity</text>
	<line class="st24" x1="352.49" y1="147.17" x2="407.65" y2="147.17"/>
	<polygon points="403.74,149.27 403.51,148.65 407.58,147.17 403.51,145.69 403.74,145.06 409.51,147.17 	"/>
	<line class="st24" x1="354.05" y1="107.12" x2="354.05" y2="148.71"/>
	<polygon points="351.95,111.03 352.57,111.26 354.05,107.19 355.53,111.26 356.16,111.03 354.05,105.25 	"/>
</g>
<g>
	<path class="st19" d="M516.69,141.14c-0.31-0.21-0.69-0.58-0.99-1.04c-0.49-0.75-0.84-1.99-1.32-3.63
		c-1.45-5.04-2.12-10.8-4.29-10.9 M503.51,141.14c0.31-0.21,0.69-0.58,0.99-1.04c0.49-0.75,0.84-1.99,1.32-3.63
		c1.45-5.04,2.11-10.8,4.28-10.9"/>
	<path class="st20" d="M529.87,141.1C529.87,141.1,530.41,141.19,529.87,141.1c-0.32-0.05-0.73-1.07-1.02-1.9
		c-0.2-0.57-0.33-1.04-0.33-1.04s-0.06-0.31-0.68-4.03c-1.26-7.57-1.86-16.2-3.77-16.34 M518.27,141.14
		c0.27-0.31,0.6-0.87,0.87-1.56c0.43-1.12,0.74-2.98,1.16-5.45c1.27-7.57,1.86-16.2,3.77-16.34"/>
	<path class="st21" d="M548.86,141.14c-0.27-0.23-0.6-0.65-0.87-1.17c-0.43-0.84-0.74-2.23-1.16-4.09
		c-1.28-5.67-1.86-12.15-3.77-12.26 M537.26,141.14c0.27-0.23,0.61-0.65,0.87-1.17c0.43-0.84,0.74-2.23,1.16-4.09
		c1.28-5.67,1.86-12.15,3.77-12.26"/>
	<path class="st19" d="M514.85,140.79c-0.25-0.05-0.55-0.13-0.79-0.24c-0.39-0.17-0.67-0.45-1.05-0.82
		c-1.16-1.15-1.69-2.46-3.43-2.48 M504.31,140.79c0.25-0.05,0.55-0.13,0.79-0.24c0.39-0.17,0.67-0.45,1.05-0.82
		c1.16-1.15,1.69-2.46,3.43-2.48"/>
	<path class="st20" d="M529.87,141.14c-0.27-0.18-0.6-0.51-0.87-0.91c-0.43-0.65-0.74-1.73-1.16-3.18
		c-1.28-4.41-1.86-9.45-3.77-9.53"/>
	<path class="st20" d="M518.27,141.14c0.27-0.18,0.6-0.51,0.87-0.91c0.43-0.65,0.74-1.73,1.16-3.18c1.27-4.41,1.86-9.45,3.77-9.53"
		/>
	<path class="st20" d="M529.87,141.1c-0.27-0.6-0.6-1.66-0.87-2.98c-0.43-2.15-0.74-5.7-1.16-10.43
		c-1.28-14.49-1.86-31.03-3.77-31.3"/>
	<path class="st20" d="M518.27,141.1c0.27-0.6,0.6-1.66,0.87-2.98c0.43-2.15,0.74-5.7,1.16-10.43c1.27-14.49,1.86-31.03,3.77-31.3"
		/>
	<path class="st19" d="M515.11,141.1c-0.27-0.46-0.6-1.3-0.87-2.33c-0.43-1.68-0.74-4.45-1.16-8.16
		c-1.28-11.32-1.86-24.25-3.77-24.46"/>
	<path class="st19" d="M503.51,141.1c0.27-0.46,0.6-1.3,0.87-2.33c0.43-1.68,0.74-4.45,1.16-8.16c1.28-11.32,1.86-24.25,3.77-24.46"
		/>
	<path class="st21" d="M549.65,141.1c-0.31-0.13-0.69-0.36-0.99-0.65c-0.49-0.47-0.84-1.23-1.32-2.26
		c-1.45-3.14-2.12-6.73-4.28-6.78 M536.46,141.1c0.31-0.13,0.69-0.36,0.99-0.65c0.49-0.47,0.85-1.23,1.32-2.26
		c1.45-3.14,2.11-6.73,4.28-6.78"/>
	<text transform="matrix(1.0004 0 0 1 504.8188 148.4688)" class="st4 st27">Scoring and best</text>
	<text transform="matrix(1.0004 0 0 1 507.7856 156.1846)" class="st4 st27">peak selection</text>
	<g>
		<polygon class="st28" points="529.79,97.74 530.34,99.43 532.12,99.43 530.68,100.48 531.23,102.16 529.79,101.12 528.35,102.16 
			528.9,100.48 527.46,99.43 529.24,99.43 		"/>
	</g>
	<text transform="matrix(1.0004 0 0 1 504.2378 103.9405)" class="st29 st30">0.98</text>
	<text transform="matrix(1.0004 0 0 1 519.1157 93.5655)" class="st29 st30">1.00</text>
	<text transform="matrix(1.0004 0 0 1 537.9878 121.8985)" class="st29 st30">0.97</text>
	<line class="st24" x1="499.95" y1="141.49" x2="554.78" y2="141.49"/>
	<polyline points="556.65,141.49 550.87,143.59 550.65,142.97 554.72,141.49 	"/>
	<polyline points="554.72,141.49 550.65,140 550.87,139.38 556.65,141.49 	"/>
	<line class="st24" x1="501.38" y1="140.04" x2="501.38" y2="142.94"/>
	<line class="st24" x1="501.38" y1="103.18" x2="501.38" y2="142.49"/>
	<polygon points="499.27,107.09 499.89,107.31 501.38,103.24 502.86,107.31 503.48,107.09 501.38,101.31 	"/>
	<text transform="matrix(0 -1.0004 1 0 496.5259 142.4883)" class="st4 st23">MS2 intensity</text>
</g>
<path class="st31" d="M192.51,249.79H12.78c-3.01,0-5.48-2.47-5.48-5.48v-74.71c0-3.01,2.47-5.48,5.48-5.48h179.73
	c3.01,0,5.48,2.47,5.48,5.48v74.71C197.99,247.32,195.52,249.79,192.51,249.79z"/>
<path class="st32" d="M565.11,249.79h-141.9c-3.01,0-5.48-2.47-5.48-5.48v-74.72c0-3.01,2.47-5.48,5.48-5.48h141.9
	c3.01,0,5.48,2.47,5.48,5.48v74.72C570.59,247.32,568.12,249.79,565.11,249.79z"/>
<path class="st33" d="M404.97,249.79H209.82c-3.09,0-5.63-2.53-5.63-5.63v-74.42c0-3.09,2.53-5.63,5.63-5.63h195.14
	c3.09,0,5.63,2.53,5.63,5.63v74.42C410.59,247.25,408.06,249.79,404.97,249.79z"/>
<polygon class="st34" points="297.92,153.52 297.92,167.18 301.58,167.18 294.27,173.3 286.97,167.18 290.62,167.18 290.62,153.52 
	"/>
<polygon class="st34" points="406.51,199.4 420.17,199.4 420.17,195.75 426.29,203.06 420.17,210.36 420.17,206.71 406.51,206.71 
	"/>
<text transform="matrix(1.0004 0 0 1 276.563 201.4756)" class="st4 st22">Select Top N  </text>
<text transform="matrix(1.0004 0 0 1 279.019 220.1124)" class="st4 st22"> Precursors  </text>
<g>
	<g>
		<path class="st19" d="M239.6,230.02c-0.31-0.21-0.69-0.58-0.99-1.04c-0.49-0.75-0.84-1.99-1.32-3.63
			c-1.45-5.04-2.12-10.8-4.29-10.9 M226.42,230.02c0.31-0.21,0.69-0.58,0.99-1.04c0.49-0.75,0.84-1.99,1.32-3.63
			c1.45-5.04,2.11-10.8,4.28-10.9"/>
		<path class="st20" d="M255.42,230.02c-0.13-0.15-0.84-3.09-1.05-5.84c-0.12-1.6-0.32-3.6-0.57-4.71
			c-0.18-0.82-0.44-0.95-0.48-1.13c-0.18-0.72-0.97,2.2-1.54,3.89c-0.5,1.47-0.83,1.93-1.02,0.78c-1.28-7.57-1.86-16.2-3.77-16.34
			 M241.19,230.02c0.27-0.31,0.6-0.87,0.87-1.56c0.43-1.12,0.74-2.98,1.16-5.45c1.27-7.57,1.86-16.2,3.77-16.34"/>
		<path class="st21" d="M271.77,230.02c-0.27-0.23-0.6-0.65-0.87-1.17c-0.43-0.84-0.74-2.23-1.16-4.09
			c-1.28-5.67-1.86-12.15-3.77-12.26 M260.17,230.02c0.27-0.23,0.61-0.65,0.87-1.17c0.43-0.84,0.74-2.23,1.16-4.09
			c1.28-5.67,1.86-12.15,3.77-12.26"/>
		<path class="st35" d="M236.44,228.34c-0.25-0.05-0.55-0.13-0.79-0.24c-0.39-0.17-0.67-0.45-1.05-0.82
			c-1.16-1.15-1.69-2.46-3.43-2.48 M225.89,228.34c0.25-0.05,0.55-0.13,0.79-0.24c0.39-0.17,0.67-0.45,1.05-0.82
			c1.16-1.15,1.69-2.46,3.43-2.48"/>
		<path class="st21" d="M271.77,228.7c-0.21-0.09-0.47-0.25-0.67-0.45c-0.33-0.33-0.57-0.87-0.9-1.59
			c-0.99-2.21-1.44-4.73-2.91-4.77"/>
		<path class="st21" d="M262.8,228.7c0.21-0.09,0.47-0.25,0.67-0.45c0.33-0.33,0.57-0.87,0.89-1.59c0.99-2.21,1.44-4.73,2.91-4.77"
			/>
		<path class="st20" d="M252.79,230.02c-0.27-0.18-0.6-0.51-0.87-0.91c-0.43-0.65-0.74-1.73-1.16-3.18
			c-1.28-4.41-1.86-9.45-3.77-9.53"/>
		<path class="st20" d="M241.19,230.02c0.27-0.18,0.6-0.51,0.87-0.91c0.43-0.65,0.74-1.73,1.16-3.18c1.27-4.41,1.86-9.45,3.77-9.53"
			/>
		<path class="st20" d="M252.79,229.98c-0.27-0.6-0.6-1.66-0.87-2.98c-0.43-2.15-0.74-5.7-1.16-10.43
			c-1.28-14.49-1.86-31.03-3.77-31.3"/>
		<path class="st20" d="M241.19,229.98c0.27-0.6,0.6-1.66,0.87-2.98c0.43-2.15,0.74-5.7,1.16-10.43c1.27-14.49,1.86-31.03,3.77-31.3
			"/>
		<path class="st19" d="M238.02,229.98c-0.27-0.46-0.6-1.3-0.87-2.33c-0.43-1.68-0.74-4.45-1.16-8.16
			c-1.28-11.32-1.86-24.25-3.77-24.46"/>
		<path class="st19" d="M226.42,229.98c0.27-0.46,0.6-1.3,0.87-2.33c0.43-1.68,0.74-4.45,1.16-8.16
			c1.28-11.32,1.86-24.25,3.77-24.46"/>
		<path class="st21" d="M271.77,228.66c-0.31-0.13-0.69-0.36-0.99-0.65c-0.49-0.47-0.84-1.23-1.32-2.26
			c-1.45-3.14-2.12-6.73-4.28-6.78 M258.59,228.66c0.31-0.13,0.69-0.36,0.99-0.65c0.49-0.47,0.85-1.23,1.32-2.26
			c1.45-3.14,2.11-6.73,4.28-6.78"/>
		<text transform="matrix(1.0004 0 0 1 225.0825 236.0235)" class="st4 st27">     Removal of </text>
		<text transform="matrix(1.0004 0 0 1 227.7129 243.7393)" class="st4 st27">interfering peptides</text>
		<line class="st24" x1="224.18" y1="230.36" x2="279.02" y2="230.36"/>
		<polygon points="275.11,232.47 274.88,231.85 278.95,230.36 274.88,228.88 275.11,228.26 280.89,230.36 		"/>
		<line class="st24" x1="225.61" y1="228.91" x2="225.61" y2="231.81"/>
		<line class="st24" x1="225.61" y1="192.05" x2="225.61" y2="231.36"/>
		<polygon points="223.51,195.96 224.13,196.19 225.61,192.12 227.09,196.19 227.71,195.96 225.61,190.19 		"/>
	</g>
	<text transform="matrix(0 -1.0004 1 0 219.8384 230.3643)" class="st4 st23">MS2 intensity</text>
</g>
<g>
	<g>
		<path class="st20" d="M372.45,230.18c-1.43-3.13-1.39-3.6-2-6.54c-1.55-7.51-1.86-16.2-3.77-16.34 M360.88,230.64
			c0.27-0.31,0.6-0.87,0.87-1.56c0.43-1.12,0.74-2.98,1.16-5.45c1.27-7.57,1.86-16.2,3.77-16.34"/>
		<path class="st19" d="M359.53,230.22c-0.31-0.21-0.69-0.58-0.99-1.04c-0.49-0.75-0.84-1.99-1.32-3.63
			c-1.45-5.04-2.12-10.8-4.29-10.9 M346.35,230.22c0.31-0.21,0.69-0.58,0.99-1.04c0.49-0.75,0.84-1.99,1.32-3.63
			c1.45-5.04,2.11-10.8,4.28-10.9"/>
		<path class="st21" d="M391.69,230.22c-0.27-0.23-0.6-0.65-0.87-1.17c-0.43-0.84-0.74-2.23-1.16-4.09
			c-1.28-5.67-1.86-12.15-3.77-12.26 M380.09,230.22c0.27-0.23,0.61-0.65,0.87-1.17c0.43-0.84,0.74-2.23,1.16-4.09
			c1.28-5.67,1.86-12.15,3.77-12.26"/>
		<path class="st20" d="M372.71,230.22c-0.27-0.18-0.6-0.51-0.87-0.91c-0.43-0.65-0.74-1.73-1.16-3.18
			c-1.28-4.41-1.86-9.45-3.77-9.53"/>
		<path class="st20" d="M361.11,230.22c0.27-0.18,0.6-0.51,0.87-0.91c0.43-0.65,0.74-1.73,1.16-3.18c1.27-4.41,1.86-9.45,3.77-9.53"
			/>
		<path class="st20" d="M372.71,230.18c-0.27-0.6-0.6-1.66-0.87-2.98c-0.43-2.15-0.74-5.7-1.16-10.43
			c-1.28-14.49-1.86-31.03-3.77-31.3"/>
		<path class="st20" d="M370.63,224.2"/>
		<path class="st20" d="M361.11,230.18c0.27-0.6,0.6-1.66,0.87-2.98c0.43-2.15,0.74-5.7,1.16-10.43c1.27-14.49,1.86-31.03,3.77-31.3
			"/>
		<path class="st19" d="M357.95,230.18c-0.27-0.46-0.6-1.3-0.87-2.33c-0.43-1.68-0.74-4.45-1.16-8.16
			c-1.28-11.32-1.86-24.25-3.77-24.46"/>
		<path class="st19" d="M346.35,230.18c0.27-0.46,0.6-1.3,0.87-2.33c0.43-1.68,0.74-4.45,1.16-8.16
			c1.28-11.32,1.86-24.25,3.77-24.46"/>
		<text transform="matrix(1.0004 0 0 1 350.3013 236.2188)" class="st4 st27">     Protein </text>
		<text transform="matrix(1.0004 0 0 1 351.6245 243.9346)" class="st4 st27">quantification</text>
		<text transform="matrix(1.0004 0 0 1 345.7505 191.6905)" class="st29 st30">0.98</text>
		<text transform="matrix(1.0004 0 0 1 361.9517 182.6373)" class="st29 st30">1.00</text>
		<text transform="matrix(1.0004 0 0 1 379.5005 210.9703)" class="st29 st30">0.97</text>
		<line class="st24" x1="341.46" y1="230.56" x2="396.3" y2="230.56"/>
		<polyline points="398.17,230.56 392.39,232.66 392.16,232.04 396.24,230.56 392.16,229.08 392.39,228.45 398.17,230.56 		"/>
		<line class="st24" x1="342.89" y1="227.79" x2="342.89" y2="230.69"/>
		<line class="st24" x1="342.89" y1="192.25" x2="342.89" y2="231.56"/>
		<polygon points="340.79,194.84 341.41,195.06 342.89,190.99 344.37,195.06 344.99,194.84 342.89,189.06 		"/>
	</g>
	<text transform="matrix(0 -1.0004 1 0 338.4126 230.3643)" class="st4 st23">MS2 intensity</text>
</g>
<path class="st36" d="M457.43,182.13c0-1.59,1.29-2.88,2.88-2.88h63.38c1.59,0,2.88,1.29,2.88,2.88v46.1
	c-11.55-8.18-18.74-8.18-23.1-8.18c-6.91,0-16.11,8.18-23.02,8.18c-4.29,0-11.55,0-23.02-8.18V182.13z"/>
<path class="st37" d="M463.09,186.48c0-1.59,1.29-2.88,2.88-2.88h63.38c1.59,0,2.88,1.29,2.88,2.88v46.1
	c-11.55-8.18-18.74-8.18-23.1-8.18c-6.91,0-16.11,8.18-23.02,8.18c-4.29,0-11.55,0-23.02-8.18V186.48z"/>
<path class="st38" d="M468.32,191.13c0-1.59,1.29-2.88,2.88-2.88h63.38c1.59,0,2.88,1.29,2.88,2.88v46.1
	c-11.55-8.18-18.74-8.18-23.1-8.18c-6.91,0-16.11,8.18-23.02,8.18c-4.29,0-11.55,0-23.02-8.18V191.13z"/>
<path class="st39" d="M474.79,195.86c0-1.59,1.29-2.88,2.88-2.88h63.38c1.59,0,2.88,1.29,2.88,2.88v46.1
	c-11.55-8.18-18.74-8.18-23.1-8.18c-6.91,0-16.11,8.18-23.02,8.18c-4.29,0-11.55,0-23.02-8.18V195.86z"/>
<g>
	<g transform="matrix(1,0,0,1,121,32.70588235294122) translate(10.97530864197531 51.47569444444445)">
		<g id="m">
			<g transform="matrix(0.06172839506172839,0,0,0.06172839506172839,75.12345679012346,0)">
				<path id="H_00000132085501227882653280000016584731851544196751_" class="st40" d="M514.34,218.16"/>
			</g>
		</g>
	</g>
</g>
<g>
	<g>
		<line class="st41" x1="454.36" y1="223.3" x2="474.04" y2="238.08"/>
		<g>
			<polygon class="st42" points="475.68,239.31 472.66,238.52 473.92,237.99 474.08,236.63 			"/>
		</g>
	</g>
</g>
<text transform="matrix(0.71 0.5334 -0.6007 0.7995 446.3609 228.4837)" class="st4 st22">Samples</text>
<text transform="matrix(0.8881 0 0 1 479.8423 214.4288)" class="st4 st22">Protein</text>
<text transform="matrix(1.0004 0 0 1 502.1792 214.4288)" class="st4 st22"> </text>
<text transform="matrix(0.8881 0 0 1 504.3853 214.4288)" class="st4 st22">Matrix </text>
</svg>
