<?xml version="1.0" encoding="utf-8"?>
<!-- Generator: Adobe Illustrator 26.0.2, SVG Export Plug-In . SVG Version: 6.00 Build 0)  -->
<svg version="1.1" id="图层_1" xmlns="http://www.w3.org/2000/svg" xmlns:xlink="http://www.w3.org/1999/xlink" x="0px" y="0px"
	 viewBox="0 0 516.2 83.8" style="enable-background:new 0 0 516.2 83.8;" xml:space="preserve">
<style type="text/css">
	.st0{fill:#0077FF;}
	.st1{fill:#0077FF;stroke:#0077FF;stroke-width:0.2735;}
	.st2{fill:#5F5F5F;stroke:#5F5F5F;stroke-width:6.328317e-02;}
</style>
<g>
	<g>
		<circle class="st0" cx="67.9" cy="41.8" r="7.5"/>
		<circle class="st0" cx="21.9" cy="28.8" r="7.5"/>
		<circle class="st0" cx="21.9" cy="54.8" r="7.5"/>
		<path class="st0" d="M55.3,41.9v-0.3c0-2.7,1.1-5.2,3.1-7.2c1.4-1.5,2.3-3.6,2.2-5.8c-0.2-4-3.5-7.2-7.5-7.3
			c-4.5-0.2-8.1,3.4-8.1,7.8c0,2.1,0.8,4,2.2,5.4c1.8,1.9,3,4.5,3,7.1v0.3c0,2.7-1.1,5.2-3.1,7.2c-1.4,1.5-2.3,3.6-2.2,5.8
			c0.2,4,3.5,7.2,7.5,7.3c4.5,0.2,8.1-3.4,8.1-7.8c0-2.1-0.8-4-2.2-5.4C56.5,47.1,55.3,44.6,55.3,41.9z"/>
		<path class="st0" d="M44.7,41.8c0-2.1-0.8-4-2.2-5.4c-1.8-1.9-3-4.5-3-7.1V29c0-2.7,1.1-5.2,3.1-7.2c1.4-1.5,2.3-3.6,2.2-5.8
			c-0.3-4-3.5-7.1-7.5-7.3c-4.5-0.2-8.1,3.4-8.1,7.8c0,2.1,0.8,4,2.2,5.4c1.8,1.9,3,4.5,3,7.1v0.3c0,2.7-1.1,5.2-3,7.1
			c-1.3,1.4-2.2,3.3-2.2,5.4c0,2.1,0.8,4,2.2,5.4c1.8,1.9,3,4.5,3,7.1v0.3c0,2.7-1.1,5.2-3.1,7.2c-1.4,1.5-2.3,3.6-2.2,5.8
			c0.2,4,3.5,7.2,7.5,7.3c4.5,0.2,8.1-3.4,8.1-7.8c0-2.1-0.8-4-2.2-5.4c-1.8-1.9-3-4.5-3-7.1v-0.3c0-2.7,1.1-5.2,3-7.1
			C43.8,45.8,44.7,43.9,44.7,41.8z"/>
	</g>
	<path class="st0" d="M83.3,82.6H1.7V1h81.6C83.3,1,83.3,82.6,83.3,82.6z M5.5,78.8h74v-74h-74V78.8z"/>
	
		<g id="shape_b7JzUP3bhD_00000080890404878535894180000007181871774810650271_" transform="translate(205.45436753103002,1.180559296430033) rotate(0,257.57,289.71) scale(1,1)">
		<g>
			<g transform="translate(80.57, 0)">
				<path class="st1" d="M-185.8,35.8l3.2-22.2l-1.4-1.9h64l-1.2,8.5c-0.2-0.8-0.6-1.3-1.3-1.6c-0.6-0.2-1.3-0.3-1.8-0.3l0,0h-46.6
					l-1.6,10.9h50l-4.1,27.9c-0.3-0.8-0.6-1.2-1.3-1.5c-0.6-0.2-1.3-0.3-1.8-0.3l0,0h-58.9l1.3-8.3l2.8,1.6h46.9l1.9-12.8H-185.8z"
					/>
				<path class="st1" d="M-97.9,55.2l5.4-36.9h-24.7l1.2-8.2l2.7,1.6H-54l-1.2,8.5c-0.2-0.8-0.6-1.3-1.3-1.6
					c-0.6-0.2-1.3-0.3-1.8-0.3l0,0h-21.9l-5.4,36.9H-97.9z"/>
				<path class="st1" d="M1.1,11.8l15.3,43.4H4.2l-5.5-16h-32.9l-10.2,16h-12.2l27.2-41.5l-1.5-1.9C-30.9,11.8,1.1,11.8,1.1,11.8z
					 M-20.8,18.3l-9.3,14.3h26.4l-4.8-14.3H-20.8z"/>
				<path class="st1" d="M43.1,55.2L28.7,14l-2.3-2.3h14.7l14,39.1l25.9-39.1h8.2L60.6,55.2H43.1z"/>
				<path class="st1" d="M152.4,30.2l-1.2,8.5c-0.3-0.8-0.6-1.3-1.2-1.5c-0.6-0.3-1.2-0.4-1.8-0.4l0,0h-44.7l-1.7,11.9h50l-1.2,8.5
					c-0.2-0.8-0.6-1.3-1.2-1.5c-0.7-0.2-1.3-0.4-1.8-0.4l0,0h-59l6.1-41.6L93,11.8h63.9l-1.2,8.5c-0.2-0.8-0.6-1.3-1.2-1.6
					c-0.7-0.2-1.3-0.4-1.8-0.4l0,0H106l-1.7,11.9C104.3,30.2,152.4,30.2,152.4,30.2z"/>
				<path class="st1" d="M156,55.2l6.1-41.6l-1.4-1.9h64l-3.8,26c-0.3-0.8-0.7-1.3-1.3-1.6c-0.6-0.3-1.2-0.4-1.8-0.4l0,0h-12.8
					l14.5,19.5h-14.1l-13.6-19.5h-20.6l-2.8,19.5C168.3,55.2,156,55.2,156,55.2z M173.7,18.3l-1.6,10.9h37.6l1.6-10.9
					C211.3,18.3,173.7,18.3,173.7,18.3z"/>
			</g>
		</g>
	</g>
	
		<g id="shape_34CtMVKDxj_00000013877197776352830270000015467710613496732333_" transform="translate(270.75092337537,266.77354372297) rotate(0,41.769999999999996,67.31) scale(1,1)">
		<g>
			<g transform="translate(18.77, 0)">
				<path class="st2" d="M-186.3-197.4v11h2.4l0,0h3.9c1,0,2-0.2,3-0.6l0,0c0.9-0.4,1.7-0.9,2.4-1.6l0,0c0.7-0.7,1.2-1.5,1.6-2.4
					l0,0c0.4-0.9,0.6-1.9,0.6-3l0,0c0-1-0.2-2-0.6-3l0,0c-0.4-0.9-0.9-1.7-1.6-2.4l0,0c-0.7-0.7-1.5-1.3-2.4-1.6l0,0
					c-0.9-0.4-1.9-0.6-3-0.6l0,0h-6.4v2.4h6.4c1.4,0,2.7,0.5,3.7,1.5l0,0c1,1,1.5,2.3,1.5,3.7l0,0c0,1.4-0.5,2.7-1.5,3.7l0,0
					c-1,1-2.3,1.5-3.7,1.5l0,0h-3.9v-8.6L-186.3-197.4L-186.3-197.4z"/>
				<path class="st2" d="M-164.4-186.3v-15.3h2.7v15.3H-164.4z"/>
				<path class="st2" d="M-147.4-201.7l7.1,15.4h-2.6l-4.5-9.8l-4.4,9.8h-2.6L-147.4-201.7z"/>
			</g>
		</g>
	</g>
</g>
</svg>
