<?xml version="1.0" encoding="utf-8"?>
<!-- Generator: Adobe Illustrator 27.7.0, SVG Export Plug-In . SVG Version: 6.00 Build 0)  -->
<svg version="1.1" id="图层_1" xmlns="http://www.w3.org/2000/svg" xmlns:xlink="http://www.w3.org/1999/xlink" x="0px" y="0px"
	 viewBox="0 0 578.5 254.9" style="enable-background:new 0 0 578.5 254.9;" xml:space="preserve">
<style type="text/css">
	.st0{fill:none;stroke:#040000;stroke-width:0.3655;stroke-miterlimit:10;stroke-dasharray:4.1768,4.1768;}
	.st1{fill:#3AAEE1;}
	.st2{fill:#FFFFFF;}
	.st3{fill:#A7DBF5;}
	.st4{font-family:'ArialMT';}
	.st5{font-size:9.6302px;}
	.st6{font-size:8px;}
	.st7{fill:none;stroke:#231815;stroke-width:1.016;stroke-miterlimit:10;}
	.st8{fill:#231815;}
	.st9{font-size:15.4102px;}
	.st10{font-family:'Arial-BoldMT';}
	.st11{font-size:10.2735px;}
	.st12{fill:none;stroke:#3D7DDA;stroke-miterlimit:8;}
	.st13{font-size:9px;}
	.st14{font-size:11.2461px;}
	.st15{font-size:11.84px;}
	.st16{fill:#E0E9D2;}
	.st17{fill:none;stroke:#231815;stroke-width:0.6;stroke-miterlimit:10;}
	.st18{fill:#D3E7EE;}
	.st19{fill:none;stroke:#0A9141;stroke-width:0.5;stroke-miterlimit:10;}
	.st20{fill:none;stroke:#D44B91;stroke-width:0.5;stroke-miterlimit:10;}
	.st21{fill:none;stroke:#8A07A5;stroke-width:0.5;stroke-miterlimit:10;}
	.st22{font-size:7.9384px;}
	.st23{font-size:6.6153px;}
	.st24{fill:none;stroke:#000000;stroke-width:0.5;}
	.st25{fill:#B28247;}
	.st26{fill:#D6C9AE;}
	.st27{font-size:6.3507px;}
	.st28{fill-rule:evenodd;clip-rule:evenodd;}
	.st29{font-family:'Helvetica';}
	.st30{font-size:5.3287px;}
	.st31{fill:none;stroke:#040000;stroke-width:0.4005;stroke-miterlimit:10;stroke-dasharray:4.5775,4.5775;}
	.st32{fill:none;stroke:#040000;stroke-width:0.4004;stroke-miterlimit:10;stroke-dasharray:4.5765,4.5765;}
	.st33{fill:none;stroke:#040000;stroke-width:0.4786;stroke-miterlimit:10;stroke-dasharray:5.47,5.47;}
	.st34{fill:none;stroke:#56BCDB;stroke-width:1.0519;stroke-miterlimit:10;}
	.st35{fill:none;stroke:#0A9141;stroke-width:0.6;stroke-miterlimit:10;}
	.st36{opacity:0.78;fill:#FFFFFF;stroke:#FF9B54;stroke-width:0.3629;enable-background:new    ;}
	.st37{opacity:0.78;fill:#FFFFFF;stroke:#FF7F51;stroke-width:0.3629;enable-background:new    ;}
	.st38{opacity:0.78;fill:#FFFFFF;stroke:#CE4257;stroke-width:0.3629;enable-background:new    ;}
	.st39{opacity:0.78;fill:#FFFFFF;stroke:#720026;stroke-width:0.3629;enable-background:new    ;}
	.st40{fill:#3A414A;}
	.st41{fill:none;stroke:#898989;stroke-width:0.7;stroke-dasharray:1,1;}
	.st42{fill:#898989;}
</style>
<g>
	<path class="st0" d="M144.8,158.6H13.9c-3.6,0-6.6-3.2-6.6-7.2v-120c0-4,3-7.2,6.6-7.2h130.9c3.6,0,6.6,3.2,6.6,7.2v120
		C151.4,155.4,148.4,158.6,144.8,158.6z"/>
	<path class="st0" d="M564,158.6H164.6c-3.6,0-6.6-3.2-6.6-7.2v-120c0-4,3-7.2,6.6-7.2H564c3.6,0,6.6,3.2,6.6,7.2v120
		C570.6,155.4,567.6,158.6,564,158.6z"/>
</g>
<g>
	<path class="st1" d="M75.4,60.3h-38v9h0.1c0,0,0,0,0,0c0,2.6,8.5,4.7,18.9,4.7c10.4,0,18.9-2.1,18.9-4.7c0,0,0,0,0,0h0.1V60.3z"/>
	<path class="st2" d="M56.4,65c-10.5,0-18.9-2.1-18.9-4.7s8.5-4.8,18.9-4.8c10.4,0,18.9,2.1,18.9,4.8C75.4,62.9,66.9,65,56.4,65"/>
	<path class="st2" d="M56.4,62.2c-6.7,0-12.2-0.9-12.2-2.1S49.7,58,56.4,58s12.2,0.9,12.2,2.1S63.1,62.2,56.4,62.2"/>
	<path class="st1" d="M75.4,49h-38v9h0.1c0,0,0,0,0,0c0,2.6,8.5,4.7,18.9,4.7c10.4,0,18.9-2.1,18.9-4.7c0,0,0,0,0,0h0.1V49z"/>
	<path class="st2" d="M56.4,53.8c-10.5,0-18.9-2.1-18.9-4.7c0-2.6,8.5-4.8,18.9-4.8c10.4,0,18.9,2.1,18.9,4.8
		C75.4,51.6,66.9,53.8,56.4,53.8"/>
	<path class="st2" d="M56.4,50.9c-6.7,0-12.2-0.9-12.2-2.1s5.5-2.1,12.2-2.1s12.2,0.9,12.2,2.1C68.6,50,63.1,50.9,56.4,50.9"/>
	<path class="st1" d="M75.4,37.7h-38v9h0.1c0,0,0,0,0,0c0,2.6,8.5,4.7,18.9,4.7c10.4,0,18.9-2.1,18.9-4.7c0,0,0,0,0,0h0.1V37.7z"/>
	<path class="st3" d="M56.4,42.5c-10.5,0-18.9-2.1-18.9-4.7S46,33,56.4,33c10.4,0,18.9,2.1,18.9,4.8C75.4,40.3,66.9,42.5,56.4,42.5"
		/>
	<path class="st2" d="M56.4,39.6c-6.7,0-12.2-0.9-12.2-2.1s5.5-2.1,12.2-2.1s12.2,0.9,12.2,2.1S63.1,39.6,56.4,39.6"/>
</g>
<g>
	<text transform="matrix(1 0 0 1 12.5481 83.5902)" class="st4 st5">Benchmark datasets</text>
</g>
<g>
	<text transform="matrix(1 0 0 1 15.9265 93.5654)" class="st4 st6">(90 x peptide profiles)</text>
</g>
<g>
	<text transform="matrix(1 0 0 1 14.2514 243.0728)" class="st4 st6">(N x peptide profiles)</text>
</g>
<g>
	<g>
		<path class="st1" d="M541.3,59.7h-38v9h0.1c0,0,0,0,0,0c0,2.6,8.5,4.7,18.9,4.7c10.5,0,18.9-2.1,18.9-4.7c0,0,0,0,0,0h0.1
			L541.3,59.7L541.3,59.7z"/>
		<path class="st2" d="M522.3,64.4c-10.5,0-18.9-2.1-18.9-4.7s8.5-4.8,18.9-4.8c10.5,0,18.9,2.1,18.9,4.8
			C541.2,62.3,532.8,64.4,522.3,64.4"/>
		<path class="st2" d="M522.3,61.5c-6.7,0-12.2-0.9-12.2-2.1s5.4-2.1,12.2-2.1s12.2,0.9,12.2,2.1C534.5,60.6,529,61.5,522.3,61.5"/>
		<path class="st1" d="M541.3,48.4h-38v9h0.1c0,0,0,0,0,0c0,2.6,8.5,4.7,18.9,4.7c10.5,0,18.9-2.1,18.9-4.7c0,0,0,0,0,0h0.1
			L541.3,48.4L541.3,48.4z"/>
		<path class="st2" d="M522.3,53.1c-10.5,0-18.9-2.1-18.9-4.7s8.5-4.8,18.9-4.8c10.5,0,18.9,2.1,18.9,4.8
			C541.2,51,532.8,53.1,522.3,53.1"/>
		<path class="st2" d="M522.3,50.2c-6.7,0-12.2-0.9-12.2-2.1s5.4-2.1,12.2-2.1s12.2,0.9,12.2,2.1C534.5,49.3,529,50.2,522.3,50.2"/>
		<path class="st1" d="M541.3,37.1h-38v9h0.1c0,0,0,0,0,0c0,2.6,8.5,4.7,18.9,4.7c10.5,0,18.9-2.1,18.9-4.7c0,0,0,0,0,0h0.1
			L541.3,37.1L541.3,37.1z"/>
		<path class="st3" d="M522.3,41.8c-10.5,0-18.9-2.1-18.9-4.7s8.5-4.8,18.9-4.8c10.5,0,18.9,2.1,18.9,4.8
			C541.2,39.7,532.8,41.8,522.3,41.8"/>
		<path class="st2" d="M522.3,39c-6.7,0-12.2-0.9-12.2-2.1s5.4-2.1,12.2-2.1s12.2,0.9,12.2,2.1C534.5,38,529,39,522.3,39"/>
	</g>
	<g>
		<text transform="matrix(1 0 0 1 485.3745 83.5904)" class="st4 st5">High-CI Peptides</text>
	</g>
</g>
<g>
	<g>
		<line class="st7" x1="105.9" y1="86.9" x2="140.7" y2="86.9"/>
		<g>
			<polygon class="st8" points="146.4,86.9 138.3,90.2 140.3,86.9 138.3,83.6 			"/>
		</g>
	</g>
</g>
<g>
	<g>
		<line class="st7" x1="150.9" y1="208.5" x2="185.7" y2="208.5"/>
		<g>
			<polygon class="st8" points="191.5,208.5 183.4,211.8 185.3,208.5 183.4,205.2 			"/>
		</g>
	</g>
</g>
<g>
	<g>
		<line class="st7" x1="279.6" y1="207.8" x2="314.4" y2="207.8"/>
		<g>
			<polygon class="st8" points="320.1,207.8 312.1,211.1 314,207.8 312.1,204.5 			"/>
		</g>
	</g>
</g>
<g>
	<g>
		<line class="st7" x1="276.6" y1="86.9" x2="311.4" y2="86.9"/>
		<g>
			<polygon class="st8" points="317.2,86.9 309.1,90.2 311,86.9 309.1,83.6 			"/>
		</g>
	</g>
</g>
<g>
	<g>
		<line class="st7" x1="432.6" y1="85.3" x2="467.4" y2="85.3"/>
		<g>
			<polygon class="st8" points="473.2,85.3 465.1,88.6 467,85.3 465.1,82 			"/>
		</g>
	</g>
</g>
<text transform="matrix(1 0 0 1 175.2402 16.8798)" class="st8 st4 st9">STAVER Algorithm Framework</text>
<text transform="matrix(1 0 0 1 100.2969 78.8638)" class="st10 st11">Preprocess</text>
<text transform="matrix(1 0 0 1 145.5186 201.3135)" class="st10 st11">Preprocess</text>
<path class="st12" d="M171.2,122.5c-2.8,0-5-0.6-5-1.3V91c0-0.7-2.2-1.3-5-1.3c2.8,0,5-0.6,5-1.3V58.2c0-0.7,2.2-1.3,5-1.3"/>
<path class="st12" d="M264.5,56.8c2.7,0,5,0.6,5,1.3V88c0,0.7,2.2,1.3,5,1.3c-2.7,0-5,0.6-5,1.3v29.9c0,0.7-2.2,1.3-5,1.3"/>
<text transform="matrix(1 0 0 1 259.7212 79.4317)" class="st4 st13">MaxSubsetMinCV</text>
<text transform="matrix(1 0 0 1 10.0464 38.4871)" class="st10 st14">Input 1</text>
<text transform="matrix(1 0 0 1 424.7358 176.8511)" class="st10 st15">Output</text>
<g>
	<text transform="matrix(1 0 0 1 271.519 38.6302)" class="st10 st15">High-CI peptides module</text>
</g>
<text transform="matrix(1 0 0 1 207.1763 179.9542)" class="st10 st14">Peptide-to-Protein Inference</text>
<g>
	<text transform="matrix(1 0 0 1 420.1587 99.9288)" class="st4 st13"> Prioritize High-CI</text>
	<text transform="matrix(1 0 0 1 430.1587 111.0388)" class="st4 st13">Precursors   </text>
</g>
<path class="st16" d="M257.7,73.6h-78.5c-2.2,0-4-1.8-4-4V53.1c0-2.2,1.8-4,4-4h78.5c2.2,0,4,1.8,4,4v16.6
	C261.7,71.8,259.9,73.6,257.7,73.6"/>
<path class="st17" d="M257.7,73.6h-78.5c-2.2,0-4-1.8-4-4V53.1c0-2.2,1.8-4,4-4h78.5c2.2,0,4,1.8,4,4v16.6
	C261.7,71.8,259.9,73.6,257.7,73.6z"/>
<path class="st18" d="M257.7,132.8h-78.5c-2.2,0-4-1.8-4-4v-16.6c0-2.2,1.8-4,4-4h78.5c2.2,0,4,1.8,4,4v16.6
	C261.7,131,259.9,132.8,257.7,132.8"/>
<path class="st17" d="M257.7,132.8h-78.5c-2.2,0-4-1.8-4-4v-16.6c0-2.2,1.8-4,4-4h78.5c2.2,0,4,1.8,4,4v16.6
	C261.7,131,259.9,132.8,257.7,132.8z"/>
<path class="st16" d="M416.4,88.4H338c-2.2,0-4-1.8-4-4V67.8c0-2.2,1.8-4,4-4h78.5c2.2,0,4,1.8,4,4v16.6
	C420.4,86.6,418.6,88.4,416.4,88.4"/>
<path class="st17" d="M416.4,88.4H338c-2.2,0-4-1.8-4-4V67.8c0-2.2,1.8-4,4-4h78.5c2.2,0,4,1.8,4,4v16.6
	C420.4,86.6,418.6,88.4,416.4,88.4z"/>
<text transform="matrix(1 0 0 1 184.7017 64.7344)" class="st4 st5">Peptide of onfile</text>
<text transform="matrix(1 0 0 1 340.2046 79.4317)" class="st4 st5">Filtered-Peptides</text>
<text transform="matrix(1 0 0 1 177.4985 122.9591)" class="st4 st5">Peptide of multifiles</text>
<text transform="matrix(1 0 0 1 427.6567 63.502)" class="st4 st13">Scoring and </text>
<text transform="matrix(1 0 0 1 435.6567 74.612)" class="st4 st13">Ranking</text>
<g>
	<g>
		<path class="st19" d="M48.7,139.3c-0.3-0.2-0.7-0.6-1-1c-0.5-0.8-0.8-2-1.3-3.6c-1.5-5-2.1-10.8-4.3-10.9 M35.5,139.3
			c0.3-0.2,0.7-0.6,1-1c0.5-0.8,0.8-2,1.3-3.6c1.5-5,2.1-10.8,4.3-10.9"/>
		<path class="st20" d="M64.5,139.3c-0.1-0.1-0.8-3.1-1-5.8c-0.1-1.6-0.3-3.6-0.6-4.7c-0.2-0.8-0.4-0.9-0.5-1.1
			c-0.2-0.7-1,2.2-1.5,3.9c-0.5,1.5-0.8,1.9-1,0.8c-1.3-7.6-1.9-16.2-3.8-16.3 M50.2,139.3c0.3-0.3,0.6-0.9,0.9-1.6
			c0.4-1.1,0.7-3,1.2-5.4c1.3-7.6,1.9-16.2,3.8-16.3"/>
		<path class="st21" d="M80.8,139.3c-0.3-0.2-0.6-0.6-0.9-1.2c-0.4-0.8-0.7-2.2-1.2-4.1c-1.3-5.7-1.9-12.2-3.8-12.3 M69.2,139.3
			c0.3-0.2,0.6-0.6,0.9-1.2c0.4-0.8,0.7-2.2,1.2-4.1c1.3-5.7,1.9-12.2,3.8-12.3"/>
		<path class="st19" d="M45.5,138.9c-0.2-0.1-0.5-0.1-0.8-0.2c-0.4-0.2-0.7-0.4-1-0.8c-1.2-1.1-1.7-2.5-3.4-2.5 M35,138.9
			c0.2-0.1,0.5-0.1,0.8-0.2c0.4-0.2,0.7-0.4,1-0.8c1.2-1.1,1.7-2.5,3.4-2.5"/>
		<path class="st21" d="M80.8,139.3c-0.2-0.1-0.5-0.2-0.7-0.4c-0.3-0.3-0.6-0.9-0.9-1.6c-1-2.2-1.4-4.7-2.9-4.8"/>
		<path class="st21" d="M71.9,139.3c0.2-0.1,0.5-0.2,0.7-0.4c0.3-0.3,0.6-0.9,0.9-1.6c1-2.2,1.4-4.7,2.9-4.8"/>
		<path class="st20" d="M61.8,139.3c-0.3-0.2-0.6-0.5-0.9-0.9c-0.4-0.6-0.7-1.7-1.2-3.2c-1.3-4.4-1.9-9.4-3.8-9.5"/>
		<path class="st20" d="M50.2,139.3c0.3-0.2,0.6-0.5,0.9-0.9c0.4-0.6,0.7-1.7,1.2-3.2c1.3-4.4,1.9-9.4,3.8-9.5"/>
		<path class="st20" d="M61.8,139.2c-0.3-0.6-0.6-1.7-0.9-3c-0.4-2.1-0.7-5.7-1.2-10.4c-1.3-14.5-1.9-31-3.8-31.3"/>
		<path class="st20" d="M50.2,139.2c0.3-0.6,0.6-1.7,0.9-3c0.4-2.1,0.7-5.7,1.2-10.4c1.3-14.5,1.9-31,3.8-31.3"/>
		<path class="st19" d="M47.1,139.2c-0.3-0.5-0.6-1.3-0.9-2.3c-0.4-1.7-0.7-4.4-1.2-8.1c-1.3-11.3-1.9-24.2-3.8-24.5"/>
		<path class="st19" d="M35.5,139.2c0.3-0.5,0.6-1.3,0.9-2.3c0.4-1.7,0.7-4.4,1.2-8.1c1.3-11.3,1.9-24.2,3.8-24.5"/>
		<path class="st21" d="M80.8,139.2c-0.3-0.1-0.7-0.4-1-0.6c-0.5-0.5-0.8-1.2-1.3-2.3c-1.4-3.1-2.1-6.7-4.3-6.8 M67.6,139.2
			c0.3-0.1,0.7-0.4,1-0.6c0.5-0.5,0.8-1.2,1.3-2.3c1.4-3.1,2.1-6.7,4.3-6.8"/>
	</g>
	<text transform="matrix(1.0004 0 0 1 14.8384 155.1848)" class="st4 st22">Chromatogram extraction</text>
	<text transform="matrix(1.0004 0 0 1 30.5347 147.2614)" class="st4 st23">Retention time (min)</text>
	<text transform="matrix(0 -1.0004 1 0 28.001 141.091)" class="st4 st23">MS2 intensity</text>
	<line class="st24" x1="31.8" y1="139.6" x2="86.9" y2="139.6"/>
	<polygon points="83,141.6 82.8,141 86.9,139.6 82.8,138.1 83,137.4 88.8,139.6 	"/>
	<line class="st24" x1="33.3" y1="99.5" x2="33.3" y2="141.1"/>
	<polygon points="31.2,103.4 31.9,103.6 33.3,99.6 34.8,103.6 35.4,103.4 33.3,97.6 	"/>
</g>
<g>
	<path class="st25" d="M70.1,211.1h-38v9h0.1c0,0,0,0,0,0c0,2.6,8.5,4.7,18.9,4.7c10.5,0,18.9-2.1,18.9-4.7c0,0,0,0,0,0h0.1
		C70.1,220.1,70.1,211.1,70.1,211.1z"/>
	<path class="st2" d="M51.1,215.9c-10.5,0-18.9-2.1-18.9-4.7c0-2.6,8.5-4.8,18.9-4.8c10.5,0,18.9,2.1,18.9,4.8
		C70.1,213.8,61.6,215.9,51.1,215.9"/>
	<path class="st2" d="M51.1,213c-6.7,0-12.2-0.9-12.2-2.1s5.5-2.1,12.2-2.1s12.2,0.9,12.2,2.1C63.3,212.1,57.8,213,51.1,213"/>
	<path class="st25" d="M70.1,199.9h-38v9h0.1c0,0,0,0,0,0c0,2.6,8.5,4.7,18.9,4.7c10.5,0,18.9-2.1,18.9-4.7c0,0,0,0,0,0h0.1
		C70.1,208.8,70.1,199.9,70.1,199.9z"/>
	<path class="st2" d="M51.1,204.6c-10.5,0-18.9-2.1-18.9-4.7c0-2.6,8.5-4.8,18.9-4.8c10.5,0,18.9,2.1,18.9,4.8
		C70.1,202.5,61.6,204.6,51.1,204.6"/>
	<path class="st2" d="M51.1,201.7c-6.7,0-12.2-0.9-12.2-2.1s5.5-2.1,12.2-2.1s12.2,0.9,12.2,2.1S57.8,201.7,51.1,201.7"/>
	<path class="st25" d="M70.1,188.6h-38v9h0.1c0,0,0,0,0,0c0,2.6,8.5,4.7,18.9,4.7c10.5,0,18.9-2.1,18.9-4.7c0,0,0,0,0,0h0.1
		C70.1,197.6,70.1,188.6,70.1,188.6z"/>
	<path class="st26" d="M51.1,193.3c-10.5,0-18.9-2.1-18.9-4.7c0-2.6,8.5-4.8,18.9-4.8c10.5,0,18.9,2.1,18.9,4.8
		C70.1,191.2,61.6,193.3,51.1,193.3"/>
	<path class="st2" d="M51.1,190.4c-6.7,0-12.2-0.9-12.2-2.1s5.5-2.1,12.2-2.1s12.2,0.9,12.2,2.1S57.8,190.4,51.1,190.4"/>
</g>
<g>
	<text transform="matrix(1 0 0 1 15.4834 234.5176)" class="st4 st5">Sample datasets</text>
</g>
<text transform="matrix(1 0 0 1 13.0737 176.7081)" class="st10 st14">Input 2</text>
<g>
	<g>
		<path class="st19" d="M116.4,229.1c-0.3-0.2-0.7-0.6-1-1c-0.5-0.8-0.8-2-1.3-3.6c-1.4-5-2.1-10.8-4.3-10.9 M103.2,229.1
			c0.3-0.2,0.7-0.6,1-1c0.5-0.8,0.8-2,1.3-3.6c1.4-5,2.1-10.8,4.3-10.9"/>
		<path class="st20" d="M132.2,229.1c-0.1-0.1-0.8-3.1-1.1-5.8c-0.1-1.6-0.3-3.6-0.6-4.7c-0.2-0.8-0.4-0.9-0.5-1.1
			c-0.2-0.7-1,2.2-1.5,3.9c-0.5,1.5-0.8,1.9-1,0.8c-1.3-7.6-1.9-16.2-3.8-16.3 M117.9,229.1c0.3-0.3,0.6-0.9,0.9-1.6
			c0.4-1.1,0.7-3,1.2-5.4c1.3-7.6,1.9-16.2,3.8-16.3"/>
		<path class="st21" d="M148.5,229.1c-0.3-0.2-0.6-0.6-0.9-1.2c-0.4-0.8-0.7-2.2-1.2-4.1c-1.3-5.7-1.9-12.1-3.8-12.3 M136.9,229.1
			c0.3-0.2,0.6-0.6,0.9-1.2c0.4-0.8,0.7-2.2,1.2-4.1c1.3-5.7,1.9-12.1,3.8-12.3"/>
		<path class="st19" d="M113.2,228.7c-0.2-0.1-0.6-0.1-0.8-0.2c-0.4-0.2-0.7-0.4-1.1-0.8c-1.2-1.1-1.7-2.5-3.4-2.5 M102.7,228.7
			c0.2-0.1,0.6-0.1,0.8-0.2c0.4-0.2,0.7-0.4,1.1-0.8c1.2-1.1,1.7-2.5,3.4-2.5"/>
		<path class="st21" d="M148.5,229.1c-0.2-0.1-0.5-0.2-0.7-0.4c-0.3-0.3-0.6-0.9-0.9-1.6c-1-2.2-1.4-4.7-2.9-4.8"/>
		<path class="st21" d="M139.6,229.1c0.2-0.1,0.5-0.2,0.7-0.4c0.3-0.3,0.6-0.9,0.9-1.6c1-2.2,1.4-4.7,2.9-4.8"/>
		<path class="st20" d="M129.6,229.1c-0.3-0.2-0.6-0.5-0.9-0.9c-0.4-0.6-0.7-1.7-1.2-3.2c-1.3-4.4-1.9-9.4-3.8-9.5"/>
		<path class="st20" d="M117.9,229.1c0.3-0.2,0.6-0.5,0.9-0.9c0.4-0.6,0.7-1.7,1.2-3.2c1.3-4.4,1.9-9.4,3.8-9.5"/>
		<path class="st20" d="M129.6,229c-0.3-0.6-0.6-1.7-0.9-3c-0.4-2.1-0.7-5.7-1.2-10.4c-1.3-14.5-1.9-31-3.8-31.3"/>
		<path class="st20" d="M117.9,229c0.3-0.6,0.6-1.7,0.9-3c0.4-2.1,0.7-5.7,1.2-10.4c1.3-14.5,1.9-31,3.8-31.3"/>
		<path class="st19" d="M114.8,229c-0.3-0.5-0.6-1.3-0.9-2.3c-0.4-1.7-0.7-4.4-1.2-8.1c-1.3-11.3-1.9-24.2-3.8-24.5"/>
		<path class="st19" d="M103.2,229c0.3-0.5,0.6-1.3,0.9-2.3c0.4-1.7,0.7-4.4,1.2-8.1c1.3-11.3,1.9-24.2,3.8-24.5"/>
		<path class="st21" d="M148.5,229c-0.3-0.1-0.7-0.4-1-0.6c-0.5-0.5-0.9-1.2-1.3-2.3c-1.4-3.1-2.1-6.7-4.3-6.8 M135.4,229
			c0.3-0.1,0.7-0.4,1-0.6c0.5-0.5,0.8-1.2,1.3-2.3c1.4-3.1,2.1-6.7,4.3-6.8"/>
	</g>
	<text transform="matrix(1.0004 0 0 1 81.6436 181.0681)" class="st4 st22">Chromatogram extraction</text>
	<text transform="matrix(1.0004 0 0 1 98.2427 237.0236)" class="st4 st23">Retention time (min)</text>
	<text transform="matrix(0 -1.0004 1 0 95.7085 230.8537)" class="st4 st23">MS2 intensity</text>
	<line class="st24" x1="99.5" y1="229.3" x2="154.6" y2="229.3"/>
	<polygon points="150.7,231.4 150.5,230.8 154.6,229.3 150.5,227.8 150.7,227.2 156.5,229.3 	"/>
	<line class="st24" x1="101" y1="189.3" x2="101" y2="230.9"/>
	<polygon points="98.9,193.2 99.6,193.4 101,189.3 102.5,193.4 103.2,193.2 101,187.4 	"/>
</g>
<g>
	<g>
		<path class="st19" d="M367.4,146.9c-0.3-0.2-0.7-0.6-1-1c-0.5-0.8-0.8-2-1.3-3.6c-1.5-5-2.1-10.8-4.3-10.9 M354.2,146.9
			c0.3-0.2,0.7-0.6,1-1c0.5-0.8,0.8-2,1.3-3.6c1.5-5,2.1-10.8,4.3-10.9"/>
		<path class="st20" d="M380.1,146.6L379,143l-0.5-3.1c-1.3-7.6-1.9-16.2-3.8-16.3 M369,146.9c0.3-0.3,0.6-0.9,0.9-1.6
			c0.4-1.1,0.7-3,1.2-5.4c1.3-7.6,1.9-16.2,3.8-16.3"/>
		<path class="st21" d="M399.5,146.9c-0.3-0.2-0.6-0.6-0.9-1.2c-0.4-0.8-0.7-2.2-1.2-4.1c-1.3-5.7-1.9-12.1-3.8-12.3 M387.9,146.9
			c0.3-0.2,0.6-0.6,0.9-1.2c0.4-0.8,0.7-2.2,1.2-4.1c1.3-5.7,1.9-12.1,3.8-12.3"/>
		<path class="st19" d="M365.5,146.6c-0.2-0.1-0.5-0.1-0.8-0.2c-0.4-0.2-0.7-0.4-1-0.8c-1.2-1.1-1.7-2.5-3.4-2.5 M355,146.6
			c0.2-0.1,0.5-0.1,0.8-0.2c0.4-0.2,0.7-0.4,1-0.8c1.2-1.1,1.7-2.5,3.4-2.5"/>
		<path class="st20" d="M380.6,146.9c-0.3-0.2-0.6-0.5-0.9-0.9c-0.4-0.6-0.7-1.7-1.2-3.2c-1.3-4.4-1.9-9.4-3.8-9.5"/>
		<path class="st20" d="M369,146.9c0.3-0.2,0.6-0.5,0.9-0.9c0.4-0.6,0.7-1.7,1.2-3.2c1.3-4.4,1.9-9.4,3.8-9.5"/>
		<path class="st20" d="M380.6,146.9c-0.3-0.6-0.6-1.7-0.9-3c-0.4-2.1-0.7-5.7-1.2-10.4c-1.3-14.5-1.9-31-3.8-31.3"/>
		<path class="st20" d="M369,146.9c0.3-0.6,0.6-1.7,0.9-3c0.4-2.1,0.7-5.7,1.2-10.4c1.3-14.5,1.9-31,3.8-31.3"/>
		<path class="st19" d="M365.8,146.9c-0.3-0.5-0.6-1.3-0.9-2.3c-0.4-1.7-0.7-4.4-1.2-8.1c-1.3-11.3-1.9-24.2-3.8-24.5"/>
		<path class="st19" d="M354.2,146.9c0.3-0.5,0.6-1.3,0.9-2.3c0.4-1.7,0.7-4.4,1.2-8.1c1.3-11.3,1.9-24.2,3.8-24.5"/>
		<path class="st21" d="M400.5,146.7c-0.3-0.1-0.7-0.4-1-0.6c-0.5-0.5-0.9-1.2-1.3-2.3c-1.5-3.1-2.1-6.7-4.3-6.8 M387.3,146.7
			c0.3-0.1,0.7-0.4,1-0.6c0.5-0.5,0.8-1.2,1.3-2.3c1.5-3.1,2.1-6.7,4.3-6.8"/>
	</g>
	<text transform="matrix(1.0004 0 0 1 334.915 98.923)" class="st4 st22">Candidate peak groups</text>
	<text transform="matrix(1.0004 0 0 1 349.251 154.8786)" class="st4 st23">Retention time (min)</text>
	<text transform="matrix(0 -1.0004 1 0 346.7168 148.7092)" class="st4 st23">MS2 intensity</text>
	<line class="st24" x1="350.5" y1="147.2" x2="405.6" y2="147.2"/>
	<polygon points="401.7,149.3 401.5,148.6 405.6,147.2 401.5,145.7 401.7,145.1 407.5,147.2 	"/>
	<line class="st24" x1="352" y1="107.1" x2="352" y2="148.7"/>
	<polygon points="350,111 350.6,111.3 352,107.2 353.5,111.3 354.2,111 352,105.2 	"/>
</g>
<g>
	<path class="st19" d="M518.7,141.1c-0.3-0.2-0.7-0.6-1-1c-0.5-0.8-0.8-2-1.3-3.6c-1.5-5-2.1-10.8-4.3-10.9 M505.5,141.1
		c0.3-0.2,0.7-0.6,1-1c0.5-0.8,0.8-2,1.3-3.6c1.5-5,2.1-10.8,4.3-10.9"/>
	<path class="st20" d="M531.9,141.1C531.9,141.1,532.4,141.2,531.9,141.1c-0.3-0.1-0.7-1.1-1-1.9c-0.2-0.6-0.3-1-0.3-1
		s-0.1-0.3-0.7-4c-1.3-7.6-1.9-16.2-3.8-16.3 M520.3,141.1c0.3-0.3,0.6-0.9,0.9-1.6c0.4-1.1,0.7-3,1.2-5.4
		c1.3-7.6,1.9-16.2,3.8-16.3"/>
	<path class="st21" d="M550.9,141.1c-0.3-0.2-0.6-0.6-0.9-1.2c-0.4-0.8-0.7-2.2-1.2-4.1c-1.3-5.7-1.9-12.2-3.8-12.3 M539.3,141.1
		c0.3-0.2,0.6-0.6,0.9-1.2c0.4-0.8,0.7-2.2,1.2-4.1c1.3-5.7,1.9-12.2,3.8-12.3"/>
	<path class="st19" d="M516.8,140.8c-0.2-0.1-0.5-0.1-0.8-0.2c-0.4-0.2-0.7-0.4-1-0.8c-1.2-1.1-1.7-2.5-3.4-2.5 M506.3,140.8
		c0.2-0.1,0.5-0.1,0.8-0.2c0.4-0.2,0.7-0.4,1-0.8c1.2-1.1,1.7-2.5,3.4-2.5"/>
	<path class="st20" d="M531.9,141.1c-0.3-0.2-0.6-0.5-0.9-0.9c-0.4-0.6-0.7-1.7-1.2-3.2c-1.3-4.4-1.9-9.4-3.8-9.5"/>
	<path class="st20" d="M520.3,141.1c0.3-0.2,0.6-0.5,0.9-0.9c0.4-0.6,0.7-1.7,1.2-3.2c1.3-4.4,1.9-9.4,3.8-9.5"/>
	<path class="st20" d="M531.9,141.1c-0.3-0.6-0.6-1.7-0.9-3c-0.4-2.1-0.7-5.7-1.2-10.4c-1.3-14.5-1.9-31-3.8-31.3"/>
	<path class="st20" d="M520.3,141.1c0.3-0.6,0.6-1.7,0.9-3c0.4-2.1,0.7-5.7,1.2-10.4c1.3-14.5,1.9-31,3.8-31.3"/>
	<path class="st19" d="M517.1,141.1c-0.3-0.5-0.6-1.3-0.9-2.3c-0.4-1.7-0.7-4.4-1.2-8.2c-1.3-11.3-1.9-24.2-3.8-24.5"/>
	<path class="st19" d="M505.5,141.1c0.3-0.5,0.6-1.3,0.9-2.3c0.4-1.7,0.7-4.4,1.2-8.2c1.3-11.3,1.9-24.2,3.8-24.5"/>
	<path class="st21" d="M551.7,141.1c-0.3-0.1-0.7-0.4-1-0.6c-0.5-0.5-0.8-1.2-1.3-2.3c-1.5-3.1-2.1-6.7-4.3-6.8 M538.5,141.1
		c0.3-0.1,0.7-0.4,1-0.6c0.5-0.5,0.8-1.2,1.3-2.3c1.5-3.1,2.1-6.7,4.3-6.8"/>
	<text transform="matrix(1.0004 0 0 1 506.8184 148.4689)" class="st4 st27">Scoring and best</text>
	<text transform="matrix(1.0004 0 0 1 509.7852 156.1848)" class="st4 st27">peak selection</text>
	<g>
		<polygon class="st28" points="531.8,97.7 532.3,99.4 534.1,99.4 532.7,100.5 533.2,102.2 531.8,101.1 530.3,102.2 530.9,100.5 
			529.5,99.4 531.2,99.4 		"/>
	</g>
	<text transform="matrix(1.0004 0 0 1 506.2383 103.9406)" class="st29 st30">0.98</text>
	<text transform="matrix(1.0004 0 0 1 521.1162 93.5656)" class="st29 st30">1.00</text>
	<text transform="matrix(1.0004 0 0 1 539.9883 121.8986)" class="st29 st30">0.97</text>
	<line class="st24" x1="502" y1="141.5" x2="556.8" y2="141.5"/>
	<polyline points="558.7,141.5 552.9,143.6 552.7,143 556.7,141.5 	"/>
	<polyline points="556.7,141.5 552.7,140 552.9,139.4 558.7,141.5 	"/>
	<line class="st24" x1="503.4" y1="140" x2="503.4" y2="142.9"/>
	<line class="st24" x1="503.4" y1="103.2" x2="503.4" y2="142.5"/>
	<polygon points="501.3,107.1 501.9,107.3 503.4,103.2 504.9,107.3 505.5,107.1 503.4,101.3 	"/>
	<text transform="matrix(0 -1.0004 1 0 498.5264 142.4885)" class="st4 st23">MS2 intensity</text>
</g>
<path class="st31" d="M192.5,249.8H12.8c-3,0-5.5-2.5-5.5-5.5v-74.7c0-3,2.5-5.5,5.5-5.5h179.7c3,0,5.5,2.5,5.5,5.5v74.7
	C198,247.3,195.5,249.8,192.5,249.8z"/>
<path class="st32" d="M565.1,249.8H423.2c-3,0-5.5-2.5-5.5-5.5v-74.7c0-3,2.5-5.5,5.5-5.5h141.9c3,0,5.5,2.5,5.5,5.5v74.7
	C570.6,247.3,568.1,249.8,565.1,249.8z"/>
<path class="st33" d="M405,249.8H209.8c-3.1,0-5.6-2.5-5.6-5.6v-74.4c0-3.1,2.5-5.6,5.6-5.6H405c3.1,0,5.6,2.5,5.6,5.6v74.4
	C410.6,247.2,408.1,249.8,405,249.8z"/>
<polygon class="st34" points="297.9,153.5 297.9,167.2 301.6,167.2 294.3,173.3 287,167.2 290.6,167.2 290.6,153.5 "/>
<polygon class="st34" points="406.5,199.4 420.2,199.4 420.2,195.8 426.3,203.1 420.2,210.4 420.2,206.7 406.5,206.7 "/>
<text transform="matrix(1.0004 0 0 1 275.563 200.4758)" class="st4 st13">Select Top N  </text>
<text transform="matrix(1.0004 0 0 1 279.019 221.1125)" class="st4 st13">Precursors  </text>
<g>
	<path class="st19" d="M239.6,230c-0.3-0.2-0.7-0.6-1-1c-0.5-0.8-0.8-2-1.3-3.6c-1.4-5-2.1-10.8-4.3-10.9 M226.4,230
		c0.3-0.2,0.7-0.6,1-1c0.5-0.8,0.8-2,1.3-3.6c1.4-5,2.1-10.8,4.3-10.9"/>
	<path class="st20" d="M255.4,230c-0.1-0.1-0.8-3.1-1.1-5.8c-0.1-1.6-0.3-3.6-0.6-4.7c-0.2-0.8-0.4-0.9-0.5-1.1
		c-0.2-0.7-1,2.2-1.5,3.9c-0.5,1.5-0.8,1.9-1,0.8c-1.3-7.6-1.9-16.2-3.8-16.3 M241.2,230c0.3-0.3,0.6-0.9,0.9-1.6
		c0.4-1.1,0.7-3,1.2-5.4c1.3-7.6,1.9-16.2,3.8-16.3"/>
	<path class="st21" d="M271.8,230c-0.3-0.2-0.6-0.6-0.9-1.2c-0.4-0.8-0.7-2.2-1.2-4.1c-1.3-5.7-1.9-12.1-3.8-12.3 M260.2,230
		c0.3-0.2,0.6-0.6,0.9-1.2c0.4-0.8,0.7-2.2,1.2-4.1c1.3-5.7,1.9-12.1,3.8-12.3"/>
	<path class="st35" d="M236.5,229.9c-0.2-0.1-0.6-0.1-0.8-0.2c-0.4-0.2-0.7-0.4-1.1-0.8c-1.2-1.1-1.7-2.5-3.4-2.5 M225.9,229.9
		c0.2-0.1,0.6-0.1,0.8-0.2c0.4-0.2,0.7-0.4,1.1-0.8c1.2-1.1,1.7-2.5,3.4-2.5"/>
	<path class="st21" d="M271.8,229.8c-0.2-0.1-0.5-0.2-0.7-0.4c-0.3-0.3-0.6-0.9-0.9-1.6c-1-2.2-1.4-4.7-2.9-4.8"/>
	<path class="st21" d="M262.8,229.8c0.2-0.1,0.5-0.2,0.7-0.4c0.3-0.3,0.6-0.9,0.9-1.6c1-2.2,1.4-4.7,2.9-4.8"/>
	<path class="st20" d="M252.8,230c-0.3-0.2-0.6-0.5-0.9-0.9c-0.4-0.6-0.7-1.7-1.2-3.2c-1.3-4.4-1.9-9.4-3.8-9.5"/>
	<path class="st20" d="M241.2,230c0.3-0.2,0.6-0.5,0.9-0.9c0.4-0.6,0.7-1.7,1.2-3.2c1.3-4.4,1.9-9.4,3.8-9.5"/>
	<path class="st20" d="M252.8,230c-0.3-0.6-0.6-1.7-0.9-3c-0.4-2.1-0.7-5.7-1.2-10.4c-1.3-14.5-1.9-31-3.8-31.3"/>
	<path class="st20" d="M241.2,230c0.3-0.6,0.6-1.7,0.9-3c0.4-2.1,0.7-5.7,1.2-10.4c1.3-14.5,1.9-31,3.8-31.3"/>
	<path class="st19" d="M238,230c-0.3-0.5-0.6-1.3-0.9-2.3c-0.4-1.7-0.7-4.4-1.2-8.2c-1.3-11.3-1.9-24.2-3.8-24.5"/>
	<path class="st19" d="M226.4,230c0.3-0.5,0.6-1.3,0.9-2.3c0.4-1.7,0.7-4.4,1.2-8.2c1.3-11.3,1.9-24.2,3.8-24.5"/>
	<path class="st21" d="M271.8,229.8c-0.3-0.1-0.7-0.4-1-0.6c-0.5-0.5-0.8-1.2-1.3-2.3c-1.5-3.1-2.1-6.7-4.3-6.8 M258.6,229.8
		c0.3-0.1,0.7-0.4,1-0.6c0.5-0.5,0.9-1.2,1.3-2.3c1.5-3.1,2.1-6.7,4.3-6.8"/>
	<text transform="matrix(1.0004 0 0 1 232.1118 236.8283)" class="st4 st27">Removal of </text>
	<text transform="matrix(1.0004 0 0 1 223.7129 243.7394)" class="st4 st27">interfering peptides</text>
	<line class="st24" x1="224.2" y1="230.4" x2="279" y2="230.4"/>
	<polygon points="275.1,232.5 274.9,231.9 279,230.4 274.9,228.9 275.1,228.3 280.9,230.4 	"/>
	<line class="st24" x1="225.6" y1="228.9" x2="225.6" y2="231.8"/>
	<line class="st24" x1="225.6" y1="192.1" x2="225.6" y2="231.4"/>
	<polygon points="223.5,196 224.1,196.2 225.6,192.1 227.1,196.2 227.7,196 225.6,190.2 	"/>
	<text transform="matrix(0 -1.0004 1 0 219.8384 230.3644)" class="st4 st23">MS2 intensity</text>
</g>
<g>
	<g>
		<path class="st20" d="M372.5,230.2c-1.4-3.1-1.4-3.6-2-6.5c-1.5-7.5-1.9-16.2-3.8-16.3 M360.9,230.6c0.3-0.3,0.6-0.9,0.9-1.6
			c0.4-1.1,0.7-3,1.2-5.4c1.3-7.6,1.9-16.2,3.8-16.3"/>
		<path class="st19" d="M359.5,230.2c-0.3-0.2-0.7-0.6-1-1c-0.5-0.8-0.8-2-1.3-3.6c-1.5-5-2.1-10.8-4.3-10.9 M346.4,230.2
			c0.3-0.2,0.7-0.6,1-1c0.5-0.8,0.8-2,1.3-3.6c1.5-5,2.1-10.8,4.3-10.9"/>
		<path class="st21" d="M391.7,230.2c-0.3-0.2-0.6-0.6-0.9-1.2c-0.4-0.8-0.7-2.2-1.2-4.1c-1.3-5.7-1.9-12.1-3.8-12.3 M380.1,230.2
			c0.3-0.2,0.6-0.6,0.9-1.2c0.4-0.8,0.7-2.2,1.2-4.1c1.3-5.7,1.9-12.1,3.8-12.3"/>
		<path class="st20" d="M372.7,230.2c-0.3-0.2-0.6-0.5-0.9-0.9c-0.4-0.6-0.7-1.7-1.2-3.2c-1.3-4.4-1.9-9.4-3.8-9.5"/>
		<path class="st20" d="M361.1,230.2c0.3-0.2,0.6-0.5,0.9-0.9c0.4-0.6,0.7-1.7,1.2-3.2c1.3-4.4,1.9-9.4,3.8-9.5"/>
		<path class="st20" d="M372.7,230.2c-0.3-0.6-0.6-1.7-0.9-3c-0.4-2.1-0.7-5.7-1.2-10.4c-1.3-14.5-1.9-31-3.8-31.3"/>
		<path class="st20" d="M370.6,224.2"/>
		<path class="st20" d="M361.1,230.2c0.3-0.6,0.6-1.7,0.9-3c0.4-2.1,0.7-5.7,1.2-10.4c1.3-14.5,1.9-31,3.8-31.3"/>
		<path class="st19" d="M358,230.2c-0.3-0.5-0.6-1.3-0.9-2.3c-0.4-1.7-0.7-4.4-1.2-8.2c-1.3-11.3-1.9-24.2-3.8-24.5"/>
		<path class="st19" d="M346.4,230.2c0.3-0.5,0.6-1.3,0.9-2.3c0.4-1.7,0.7-4.4,1.2-8.2c1.3-11.3,1.9-24.2,3.8-24.5"/>
		<text transform="matrix(1.0004 0 0 1 359.3311 237.0236)" class="st4 st27">Protein </text>
		<text transform="matrix(1.0004 0 0 1 351.625 243.9348)" class="st4 st27">quantification</text>
		<text transform="matrix(1.0004 0 0 1 345.751 191.6906)" class="st29 st30">0.98</text>
		<text transform="matrix(1.0004 0 0 1 361.9521 182.6374)" class="st29 st30">1.00</text>
		<text transform="matrix(1.0004 0 0 1 379.501 210.9704)" class="st29 st30">0.97</text>
		<line class="st24" x1="341.5" y1="230.6" x2="396.3" y2="230.6"/>
		<polyline points="398.2,230.6 392.4,232.7 392.2,232 396.2,230.6 392.2,229.1 392.4,228.4 398.2,230.6 		"/>
		<line class="st24" x1="342.9" y1="227.8" x2="342.9" y2="230.7"/>
		<line class="st24" x1="342.9" y1="192.2" x2="342.9" y2="231.6"/>
		<polygon points="340.8,194.8 341.4,195.1 342.9,191 344.4,195.1 345,194.8 342.9,189.1 		"/>
	</g>
	<text transform="matrix(0 -1.0004 1 0 338.4121 230.3644)" class="st4 st23">MS2 intensity</text>
</g>
<path class="st36" d="M457.4,182.1c0-1.6,1.3-2.9,2.9-2.9h63.4c1.6,0,2.9,1.3,2.9,2.9v46.1c-11.5-8.2-18.7-8.2-23.1-8.2
	c-6.9,0-16.1,8.2-23,8.2c-4.3,0-11.5,0-23-8.2L457.4,182.1L457.4,182.1z"/>
<path class="st37" d="M463.1,186.5c0-1.6,1.3-2.9,2.9-2.9h63.4c1.6,0,2.9,1.3,2.9,2.9v46.1c-11.5-8.2-18.7-8.2-23.1-8.2
	c-6.9,0-16.1,8.2-23,8.2c-4.3,0-11.5,0-23-8.2V186.5z"/>
<path class="st38" d="M468.3,191.1c0-1.6,1.3-2.9,2.9-2.9h63.4c1.6,0,2.9,1.3,2.9,2.9v46.1c-11.5-8.2-18.7-8.2-23.1-8.2
	c-6.9,0-16.1,8.2-23,8.2c-4.3,0-11.5,0-23-8.2L468.3,191.1L468.3,191.1z"/>
<path class="st39" d="M474.8,195.9c0-1.6,1.3-2.9,2.9-2.9H541c1.6,0,2.9,1.3,2.9,2.9V242c-11.5-8.2-18.7-8.2-23.1-8.2
	c-6.9,0-16.1,8.2-23,8.2c-4.3,0-11.5,0-23-8.2L474.8,195.9L474.8,195.9z"/>
<g>
	<g transform="matrix(1,0,0,1,121,32.70588235294122) translate(10.97530864197531 51.47569444444445)">
		<g id="m">
			<g transform="matrix(0.06172839506172839,0,0,0.06172839506172839,75.12345679012346,0)">
				<path id="H_00000132085501227882653280000016584731851544196751_" class="st40" d="M514.3,218.2"/>
			</g>
		</g>
	</g>
</g>
<g>
	<g>
		<g>
			<g>
				<line class="st41" x1="453.9" y1="222.4" x2="474.7" y2="238"/>
				<g>
					<polygon class="st42" points="477,239.8 472.7,238.6 474.5,237.9 474.7,235.9 					"/>
				</g>
			</g>
		</g>
	</g>
</g>
<text transform="matrix(0.71 0.5334 -0.6007 0.7995 446.3605 228.4838)" class="st4 st22">Samples</text>
<text transform="matrix(1.0004 0 0 1 502.1797 214.4289)" class="st4 st22"> </text>
<text transform="matrix(1.0004 0 0 1 481.8431 214.4285)" class="st4 st22"> Protein Matrix </text>
</svg>
