<?xml version="1.0" encoding="utf-8"?>
<!-- Generator: Adobe Illustrator 26.0.2, SVG Export Plug-In . SVG Version: 6.00 Build 0)  -->
<svg version="1.1" id="图层_1" xmlns="http://www.w3.org/2000/svg" xmlns:xlink="http://www.w3.org/1999/xlink" x="0px" y="0px"
	 viewBox="0 0 516.2 83.8" style="enable-background:new 0 0 516.2 83.8;" xml:space="preserve">
<style type="text/css">
	.st0{fill:#0077FF;}
	.st1{fill:#0077FF;stroke:#0077FF;stroke-width:0.2735;}
	.st2{fill:#5F5F5F;stroke:#5F5F5F;stroke-width:6.328317e-02;}
</style>
<g>
	<g>
		<circle class="st0" cx="67.9" cy="41.8" r="7.5"/>
		<circle class="st0" cx="21.9" cy="28.8" r="7.5"/>
		<circle class="st0" cx="21.9" cy="54.8" r="7.5"/>
		<path class="st0" d="M55.3,41.9v-0.3c0-2.7,1.1-5.2,3.1-7.2c1.4-1.5,2.3-3.6,2.2-5.8c-0.2-4-3.5-7.2-7.5-7.3
			c-4.5-0.2-8.1,3.4-8.1,7.8c0,2.1,0.8,4,2.2,5.4c1.8,1.9,3,4.5,3,7.1v0.3c0,2.7-1.1,5.2-3.1,7.2c-1.4,1.5-2.3,3.6-2.2,5.8
			c0.2,4,3.5,7.2,7.5,7.3c4.5,0.2,8.1-3.4,8.1-7.8c0-2.1-0.8-4-2.2-5.4C56.5,47.1,55.3,44.6,55.3,41.9z"/>
		<path class="st0" d="M44.7,41.8c0-2.1-0.8-4-2.2-5.4c-1.8-1.9-3-4.5-3-7.1V29c0-2.7,1.1-5.2,3.1-7.2c1.4-1.5,2.3-3.6,2.2-5.8
			c-0.3-4-3.5-7.1-7.5-7.3c-4.5-0.2-8.1,3.4-8.1,7.8c0,2.1,0.8,4,2.2,5.4c1.8,1.9,3,4.5,3,7.1v0.3c0,2.7-1.1,5.2-3,7.1
			c-1.3,1.4-2.2,3.3-2.2,5.4c0,2.1,0.8,4,2.2,5.4c1.8,1.9,3,4.5,3,7.1v0.3c0,2.7-1.1,5.2-3.1,7.2c-1.4,1.5-2.3,3.6-2.2,5.8
			c0.2,4,3.5,7.2,7.5,7.3c4.5,0.2,8.1-3.4,8.1-7.8c0-2.1-0.8-4-2.2-5.4c-1.8-1.9-3-4.5-3-7.1v-0.3c0-2.7,1.1-5.2,3-7.1
			C43.8,45.8,44.7,43.9,44.7,41.8z"/>
	</g>
	<path class="st0" d="M83.3,82.6H1.7V1h81.6C83.3,1,83.3,82.6,83.3,82.6z M5.5,78.8h74v-74h-74V78.8z"/>
	
		<g id="shape_b7JzUP3bhD_00000080890404878535894180000007181871774810650271_" transform="translate(205.45436753103002,1.180559296430033) rotate(0,257.57,289.71) scale(1,1)">
		<g>
			<g transform="translate(80.57, 0)">
				<path class="st1" d="M-185.9,33.8l4.7-22.2l-1.3-1.9h64l-1.8,8.5c-0.1-0.8-0.5-1.3-1.2-1.6c-0.6-0.2-1.3-0.3-1.8-0.3l0,0h-46.6
					l-2.3,10.9h50l-5.9,27.9c-0.2-0.8-0.5-1.2-1.2-1.5c-0.6-0.2-1.3-0.3-1.8-0.3l0,0H-190l1.8-8.3l2.7,1.6h46.9l2.7-12.8H-185.9z"/>
				<path class="st1" d="M-99.3,53.2l7.8-36.9h-24.7l1.7-8.2l2.6,1.6h59.3l-1.8,8.5c-0.1-0.8-0.5-1.3-1.2-1.6
					c-0.6-0.2-1.3-0.3-1.8-0.3l0,0h-21.9l-7.8,36.9H-99.3z"/>
				<path class="st1" d="M2.5,9.8l12.4,43.4H2.8l-4.4-16h-32.9l-11.3,16H-58l29.9-41.5l-1.4-1.9C-29.5,9.8,2.5,9.8,2.5,9.8z
					 M-19.8,16.3L-30,30.6h26.4l-3.9-14.3H-19.8z"/>
				<path class="st1" d="M41.7,53.2L30,12l-2.1-2.3h14.7L54,48.8L82.5,9.7h8.2L59.2,53.2H41.7z"/>
				<path class="st1" d="M152.6,28.2l-1.8,8.5c-0.2-0.8-0.5-1.3-1.1-1.5c-0.6-0.3-1.2-0.4-1.8-0.4l0,0h-44.7l-2.5,11.9h50l-1.8,8.5
					c-0.1-0.8-0.5-1.3-1.1-1.5c-0.7-0.2-1.3-0.4-1.8-0.4l0,0H87l8.8-41.6l-1.4-1.9h63.9l-1.8,8.5c-0.1-0.8-0.5-1.3-1.1-1.6
					c-0.7-0.2-1.3-0.4-1.8-0.4l0,0H107l-2.5,11.9C104.5,28.2,152.6,28.2,152.6,28.2z"/>
				<path class="st1" d="M154.6,53.2l8.8-41.6l-1.3-1.9h64l-5.5,26c-0.2-0.8-0.6-1.3-1.2-1.6c-0.6-0.3-1.2-0.4-1.8-0.4l0,0h-12.8
					L218,53.2h-14.1l-12.3-19.5H171l-4.1,19.5C166.9,53.2,154.6,53.2,154.6,53.2z M174.7,16.3l-2.3,10.9H210l2.3-10.9
					C212.3,16.3,174.7,16.3,174.7,16.3z"/>
			</g>
		</g>
	</g>
	
		<g id="shape_34CtMVKDxj_00000013877197776352830270000015467710613496732333_" transform="translate(270.75092337537,266.77354372297) rotate(0,41.769999999999996,67.31) scale(1,1)">
		<g>
			<g transform="translate(18.77, 0)">
				<path class="st2" d="M-186.3-199.4v11h2.4l0,0h3.9c1,0,2-0.2,3-0.6l0,0c0.9-0.4,1.7-0.9,2.4-1.6l0,0c0.7-0.7,1.2-1.5,1.6-2.4
					l0,0c0.4-0.9,0.6-1.9,0.6-3l0,0c0-1-0.2-2-0.6-3l0,0c-0.4-0.9-0.9-1.7-1.6-2.4l0,0c-0.7-0.7-1.5-1.3-2.4-1.6l0,0
					c-0.9-0.4-1.9-0.6-3-0.6l0,0h-6.4v2.4h6.4c1.4,0,2.7,0.5,3.7,1.5l0,0c1,1,1.5,2.3,1.5,3.7l0,0c0,1.4-0.5,2.7-1.5,3.7l0,0
					c-1,1-2.3,1.5-3.7,1.5l0,0h-3.9v-8.6L-186.3-199.4L-186.3-199.4z"/>
				<path class="st2" d="M-164.4-188.3v-15.3h2.7v15.3H-164.4z"/>
				<path class="st2" d="M-147.4-203.7l7.1,15.4h-2.6l-4.5-9.8l-4.4,9.8h-2.6L-147.4-203.7z"/>
			</g>
		</g>
	</g>
</g>
</svg>
